<?xml version="1.0" encoding="UTF-8" standalone="no"?>
<svg
   xmlns:dc="http://purl.org/dc/elements/1.1/"
   xmlns:cc="http://creativecommons.org/ns#"
   xmlns:rdf="http://www.w3.org/1999/02/22-rdf-syntax-ns#"
   xmlns:svg="http://www.w3.org/2000/svg"
   xmlns="http://www.w3.org/2000/svg"
   xmlns:sodipodi="http://sodipodi.sourceforge.net/DTD/sodipodi-0.dtd"
   xmlns:inkscape="http://www.inkscape.org/namespaces/inkscape"
   viewBox="0 0 330 200"
   version="1.1"
   id="svg1516"
   sodipodi:docname="rew_mean_pro_builds.svg"
   inkscape:version="1.0.2 (e86c870879, 2021-01-15)">
  <metadata
     id="metadata1522">
    <rdf:RDF>
      <cc:Work
         rdf:about="">
        <dc:format>image/svg+xml</dc:format>
        <dc:type
           rdf:resource="http://purl.org/dc/dcmitype/StillImage" />
        <dc:title></dc:title>
      </cc:Work>
    </rdf:RDF>
  </metadata>
  <defs
     id="defs1520" />
  <sodipodi:namedview
     pagecolor="#ffffff"
     bordercolor="#666666"
     borderopacity="1"
     objecttolerance="10"
     gridtolerance="10"
     guidetolerance="10"
     inkscape:pageopacity="0"
     inkscape:pageshadow="2"
     inkscape:window-width="2560"
     inkscape:window-height="1376"
     id="namedview1518"
     showgrid="false"
     inkscape:zoom="2.019697"
     inkscape:cx="245.16005"
     inkscape:cy="1.0661577"
     inkscape:window-x="0"
     inkscape:window-y="0"
     inkscape:window-maximized="1"
     inkscape:current-layer="svg1516" />
  <g
     id="g1344"
     style="fill:#000000">
    <g
       id="g1342"
       style="fill:#000000">
      <g
         id="g1318"
         style="fill:#000000">
        <line
           x1="41.149002"
           y1="176.89999"
           x2="36.149002"
           y2="176.89999"
           style="visibility:inherit;fill:#000000"
           fill="#000000"
           stroke="#cccccc"
           stroke-width="1px"
           id="line1300" />
        <line
           x1="41.149002"
           y1="154.78751"
           x2="36.149002"
           y2="154.78751"
           style="visibility:inherit;fill:#000000"
           fill="#000000"
           stroke="#cccccc"
           stroke-width="1px"
           id="line1302" />
        <line
           x1="41.149002"
           y1="132.675"
           x2="36.149002"
           y2="132.675"
           style="visibility:inherit;fill:#000000"
           fill="#000000"
           stroke="#cccccc"
           stroke-width="1px"
           id="line1304" />
        <line
           x1="41.149002"
           y1="110.5625"
           x2="36.149002"
           y2="110.5625"
           style="visibility:inherit;fill:#000000"
           fill="#000000"
           stroke="#cccccc"
           stroke-width="1px"
           id="line1306" />
        <line
           x1="41.149002"
           y1="88.449997"
           x2="36.149002"
           y2="88.449997"
           style="visibility:inherit;fill:#000000"
           fill="#000000"
           stroke="#cccccc"
           stroke-width="1px"
           id="line1308" />
        <line
           x1="41.149002"
           y1="66.337502"
           x2="36.149002"
           y2="66.337502"
           style="visibility:inherit;fill:#000000"
           fill="#000000"
           stroke="#cccccc"
           stroke-width="1px"
           id="line1310" />
        <line
           x1="41.149002"
           y1="44.224998"
           x2="36.149002"
           y2="44.224998"
           style="visibility:inherit;fill:#000000"
           fill="#000000"
           stroke="#cccccc"
           stroke-width="1px"
           id="line1312" />
        <line
           x1="41.149002"
           y1="22.112499"
           x2="36.149002"
           y2="22.112499"
           style="visibility:inherit;fill:#000000"
           fill="#000000"
           stroke="#cccccc"
           stroke-width="1px"
           id="line1314" />
        <line
           x1="41.149002"
           y1="0"
           x2="36.149002"
           y2="0"
           style="visibility:inherit;fill:#000000"
           fill="#000000"
           stroke="#cccccc"
           stroke-width="1px"
           id="line1316" />
      </g>
      <g
         transform="translate(31.149001)"
         id="g1338"
         style="fill:#000000">
        <text
           style="font-weight:200;font-size:12px;font-family:Roboto, sans-serif;text-anchor:end;visibility:hidden;fill:#000000"
           x="0"
           y="176.89999"
           dx="0em"
           dy="0.30000001em"
           fill="#ffffff"
           stroke="none"
           stroke-width="1px"
           id="text1320">0</text>
        <text
           style="font-weight:200;font-size:12px;font-family:Roboto, sans-serif;text-anchor:end;visibility:inherit;fill:#000000"
           x="0"
           y="154.78751"
           dx="0em"
           dy="0.30000001em"
           fill="#ffffff"
           stroke="none"
           stroke-width="1px"
           id="text1322">50</text>
        <text
           style="font-weight:200;font-size:12px;font-family:Roboto, sans-serif;text-anchor:end;visibility:hidden;fill:#000000"
           x="0"
           y="132.675"
           dx="0em"
           dy="0.30000001em"
           fill="#ffffff"
           stroke="none"
           stroke-width="1px"
           id="text1324">100</text>
        <text
           style="font-weight:200;font-size:12px;font-family:Roboto, sans-serif;text-anchor:end;visibility:inherit;fill:#000000"
           x="0"
           y="110.5625"
           dx="0em"
           dy="0.30000001em"
           fill="#ffffff"
           stroke="none"
           stroke-width="1px"
           id="text1326">150</text>
        <text
           style="font-weight:200;font-size:12px;font-family:Roboto, sans-serif;text-anchor:end;visibility:hidden;fill:#000000"
           x="0"
           y="88.449997"
           dx="0em"
           dy="0.30000001em"
           fill="#ffffff"
           stroke="none"
           stroke-width="1px"
           id="text1328">200</text>
        <text
           style="font-weight:200;font-size:12px;font-family:Roboto, sans-serif;text-anchor:end;visibility:inherit;fill:#000000"
           x="0"
           y="66.337502"
           dx="0em"
           dy="0.30000001em"
           fill="#ffffff"
           stroke="none"
           stroke-width="1px"
           id="text1330">250</text>
        <text
           style="font-weight:200;font-size:12px;font-family:Roboto, sans-serif;text-anchor:end;visibility:hidden;fill:#000000"
           x="0"
           y="44.224998"
           dx="0em"
           dy="0.30000001em"
           fill="#ffffff"
           stroke="none"
           stroke-width="1px"
           id="text1332">300</text>
        <text
           style="font-weight:200;font-size:12px;font-family:Roboto, sans-serif;text-anchor:end;visibility:inherit;fill:#000000"
           x="0"
           y="22.112499"
           dx="0em"
           dy="0.30000001em"
           fill="#ffffff"
           stroke="none"
           stroke-width="1px"
           id="text1334">350</text>
        <text
           style="font-weight:200;font-size:12px;font-family:Roboto, sans-serif;text-anchor:end;visibility:hidden;fill:#000000"
           x="0"
           y="0"
           dx="0em"
           dy="0.30000001em"
           fill="#ffffff"
           stroke="none"
           stroke-width="1px"
           id="text1336">400</text>
      </g>
      <line
         x1="41.149002"
         y1="0"
         x2="41.149002"
         y2="176.89999"
         fill="#000000"
         stroke="#cccccc"
         stroke-width="1px"
         id="line1340"
         style="fill:#000000" />
    </g>
  </g>
  <g
     transform="translate(41)"
     clip-path="url(#clip_0)"
     id="g1445">
    <clipPath
       id="clip_0">
      <rect
         width="288"
         height="176"
         id="rect1346"
         x="0"
         y="0" />
    </clipPath>
    <g
       id="g1399">
      <g
         id="g1397">
        <g
           id="g1375">
          <line
             x1="0"
             y1="0"
             x2="0"
             y2="176.89999"
             fill="#000000"
             stroke="#bdbdbd"
             stroke-width="1px"
             opacity="0.25"
             id="line1349" />
          <line
             x1="24.070917"
             y1="0"
             x2="24.070917"
             y2="176.89999"
             fill="#000000"
             stroke="#bdbdbd"
             stroke-width="1px"
             opacity="0.25"
             id="line1351" />
          <line
             x1="48.141834"
             y1="0"
             x2="48.141834"
             y2="176.89999"
             fill="#000000"
             stroke="#bdbdbd"
             stroke-width="1px"
             opacity="0.25"
             id="line1353" />
          <line
             x1="72.212753"
             y1="0"
             x2="72.212753"
             y2="176.89999"
             fill="#000000"
             stroke="#bdbdbd"
             stroke-width="1px"
             opacity="0.25"
             id="line1355" />
          <line
             x1="96.283669"
             y1="0"
             x2="96.283669"
             y2="176.89999"
             fill="#000000"
             stroke="#bdbdbd"
             stroke-width="1px"
             opacity="0.25"
             id="line1357" />
          <line
             x1="120.35458"
             y1="0"
             x2="120.35458"
             y2="176.89999"
             fill="#000000"
             stroke="#bdbdbd"
             stroke-width="1px"
             opacity="0.25"
             id="line1359" />
          <line
             x1="144.42551"
             y1="0"
             x2="144.42551"
             y2="176.89999"
             fill="#000000"
             stroke="#bdbdbd"
             stroke-width="1px"
             opacity="0.25"
             id="line1361" />
          <line
             x1="168.49641"
             y1="0"
             x2="168.49641"
             y2="176.89999"
             fill="#000000"
             stroke="#bdbdbd"
             stroke-width="1px"
             opacity="0.25"
             id="line1363" />
          <line
             x1="192.56734"
             y1="0"
             x2="192.56734"
             y2="176.89999"
             fill="#000000"
             stroke="#bdbdbd"
             stroke-width="1px"
             opacity="0.25"
             id="line1365" />
          <line
             x1="216.63824"
             y1="0"
             x2="216.63824"
             y2="176.89999"
             fill="#000000"
             stroke="#bdbdbd"
             stroke-width="1px"
             opacity="0.25"
             id="line1367" />
          <line
             x1="240.70917"
             y1="0"
             x2="240.70917"
             y2="176.89999"
             fill="#000000"
             stroke="#bdbdbd"
             stroke-width="1px"
             opacity="0.25"
             id="line1369" />
          <line
             x1="264.78009"
             y1="0"
             x2="264.78009"
             y2="176.89999"
             fill="#000000"
             stroke="#bdbdbd"
             stroke-width="1px"
             opacity="0.25"
             id="line1371" />
          <line
             x1="288.85101"
             y1="0"
             x2="288.85101"
             y2="176.89999"
             fill="#000000"
             stroke="#bdbdbd"
             stroke-width="1px"
             opacity="0.25"
             id="line1373" />
        </g>
        <g
           id="g1395">
          <line
             x1="0"
             y1="176.89999"
             x2="288.85101"
             y2="176.89999"
             fill="#000000"
             stroke="#bdbdbd"
             stroke-width="1px"
             opacity="0.25"
             id="line1377" />
          <line
             x1="0"
             y1="154.78751"
             x2="288.85101"
             y2="154.78751"
             fill="#000000"
             stroke="#bdbdbd"
             stroke-width="1px"
             opacity="0.25"
             id="line1379" />
          <line
             x1="0"
             y1="132.675"
             x2="288.85101"
             y2="132.675"
             fill="#000000"
             stroke="#bdbdbd"
             stroke-width="1px"
             opacity="0.25"
             id="line1381" />
          <line
             x1="0"
             y1="110.5625"
             x2="288.85101"
             y2="110.5625"
             fill="#000000"
             stroke="#bdbdbd"
             stroke-width="1px"
             opacity="0.25"
             id="line1383" />
          <line
             x1="0"
             y1="88.449997"
             x2="288.85101"
             y2="88.449997"
             fill="#000000"
             stroke="#bdbdbd"
             stroke-width="1px"
             opacity="0.25"
             id="line1385" />
          <line
             x1="0"
             y1="66.337502"
             x2="288.85101"
             y2="66.337502"
             fill="#000000"
             stroke="#bdbdbd"
             stroke-width="1px"
             opacity="0.25"
             id="line1387" />
          <line
             x1="0"
             y1="44.224998"
             x2="288.85101"
             y2="44.224998"
             fill="#000000"
             stroke="#bdbdbd"
             stroke-width="1px"
             opacity="0.25"
             id="line1389" />
          <line
             x1="0"
             y1="22.112499"
             x2="288.85101"
             y2="22.112499"
             fill="#000000"
             stroke="#bdbdbd"
             stroke-width="1px"
             opacity="0.25"
             id="line1391" />
          <line
             x1="0"
             y1="0"
             x2="288.85101"
             y2="0"
             fill="#000000"
             stroke="#bdbdbd"
             stroke-width="1px"
             opacity="0.25"
             id="line1393" />
        </g>
      </g>
    </g>
    <g
       id="g1405">
      <g
         id="g1403">
        <line
           x1="0"
           y1="176.89999"
           x2="288.85101"
           y2="176.89999"
           fill="#000000"
           stroke="#999999"
           stroke-width="1.5px"
           id="line1401" />
      </g>
    </g>
    <g
       id="g1411">
      <g
         id="g1409">
        <line
           x1="24.070917"
           y1="0"
           x2="24.070917"
           y2="176.89999"
           fill="#000000"
           stroke="#999999"
           stroke-width="1.5px"
           id="line1407" />
      </g>
    </g>
    <g
       id="g1443">
      <g
         id="g1441">
        <g
           id="g1439">
          <g
             id="g1437">
            <g
               id="g1415">
              <path
                 style="fill:none"
                 stroke="#cc3311"
                 stroke-width="2px"
                 d="m 24.563889,166.47174 0.492972,-6.09224 0.492973,0.79999 0.492972,-1.61103 0.492972,0.0985 0.492973,-0.18554 0.492972,1.56634 0.492973,-0.43661 0.492972,-0.26575 0.492972,0.52046 0.492973,-0.57554 0.492972,-0.24297 0.492972,0.65586 0.492973,-0.42699 0.492972,0.15787 0.492973,-0.57993 0.492972,0.23087 0.492972,-0.0865 0.492973,-0.18979 0.492972,-0.50948 0.492972,-0.1309 0.492973,-0.66957 0.492972,0.10614 0.492972,0.4564 0.492973,-0.67531 0.492972,0.10968 0.492973,-0.40334 0.492972,-0.15567 0.492972,-0.20786 0.492973,-0.15125 0.492972,-0.9212 0.492972,-0.79959 0.492973,-0.44048 0.492972,-0.0318 0.492973,0.0641 0.492972,-0.79383 0.492972,-0.76864 0.492973,-0.70627 0.492972,-0.001 0.492972,-0.55546 0.492973,-0.26889 0.492972,0.85973 0.492973,-0.93491 0.492972,-1.18435 0.492972,-0.62844 0.492973,-1.28694 0.492972,-0.0933 0.492972,-0.77438 0.492973,0.17646 0.492972,-0.30161 0.492973,-0.0712 0.492972,-0.78101 0.492972,1.60758 0.492973,-0.17646 0.492972,-0.87565 0.492972,-0.64171 0.492973,0.2627 0.492972,0.0385 0.492972,-0.0314 0.492973,-0.26269 0.492972,-0.70672 0.492973,0.33567 0.492972,-0.83099 0.492972,-0.21316 0.492973,0.40377 0.492972,-0.40377 0.492972,1.13437 0.492973,-0.18663 0.492972,-0.22024 0.492973,-0.84868 0.492972,-0.46569 0.492972,-0.1225 0.492973,0.30117 0.492972,0.18486 0.492972,-0.11498 0.492973,-0.79163 0.492972,1.42007 0.492973,-0.79119 0.492972,0.0548 0.492972,-0.17513 0.492973,-0.73149 0.492972,-0.38077 0.492972,0.0102 0.492973,0.50505 0.492972,-0.31665 0.492973,-0.3768 0.492972,-0.22997 0.492972,0.0371 0.492973,0.20432 0.492972,-0.41129 0.492972,0.26711 0.492973,0.0924 0.492972,0.16054 0.492972,-0.18795 0.492973,-1.17727 0.492972,-0.42279 0.492973,-0.43297 0.492972,-0.75403 0.492972,-0.5139 0.492973,-0.35247 0.492972,0.27154 0.492972,0.44137 0.492973,0.20343 0.492972,0.40864 0.492973,0.39758 0.492972,-0.5192 0.492972,-0.67929 0.492973,0.15257 0.492972,0.0398 0.492972,0.91944 0.492973,-0.20476 0.492972,-0.96278 0.492973,-0.1539 0.492972,-0.291 0.492972,-0.0916 0.492973,0.0566 0.492972,-0.2711 0.492972,-0.66249 0.492973,0.42323 0.492972,0.54751 0.492973,0.70804 0.492972,-0.1141 0.492972,0.81197 0.492973,-0.30073 0.492972,-0.77924 0.492972,0.05 0.492973,-0.71821 0.492972,0.1685 0.492972,0.18176 0.492973,0.8929 0.492972,0.46967 0.492973,-0.14771 0.492972,-0.0358 0.492972,0.78101 0.492973,1.16135 0.492972,-0.3936 0.492972,-0.1601 0.492973,0.29145 0.492972,0.18707 0.492973,0.23085 0.492972,-0.69875 0.492972,-0.20963 0.492973,-0.3454 0.492972,0.72087 0.492972,-0.24854 0.492973,0.52406 0.492972,0.64038 0.492973,0.43606 0.492972,0.7191 0.492972,-0.78367 0.492973,-0.61959 0.492972,-0.92298 0.492972,-0.16628 0.492973,0.34451 0.492968,-0.24899 0.49298,0.65321 0.49297,-0.42324 0.49297,0.13356 0.49297,-0.46171 0.49298,0.15656 0.49297,0.0654 0.49297,0.90617 0.49297,0.2198 0.49298,0.44225 0.49297,-0.75624 0.49297,-0.0464 0.49297,-1.18435 0.49297,-0.78676 0.49298,-0.82303 0.49297,0.0588 0.49297,-0.84425 0.49297,-0.87123 0.49298,0.44269 0.49297,-0.26933 0.49297,0.10835 0.49297,0.11631 0.49298,-0.29984 0.49297,0.17557 0.49297,-0.48383 0.49297,-0.58686 0.49298,-0.42721 0.49297,-0.0765 0.49297,0.36441 0.49297,-0.39095 0.49298,-0.0778 0.49297,-0.17292 0.49297,-0.57714 0.49297,-0.56254 0.49297,0.0823 0.49298,0.45905 0.49297,0.60412 0.49297,0.35114 0.49297,-0.0535 0.49298,0.8531 0.49297,0.78986 0.49297,-0.53778 0.49297,-0.0345 0.49298,-0.82701 0.49297,0.25473 0.49297,-0.10083 0.49297,-0.44623 0.49298,0.37724 0.49297,0.14329 0.49297,1.76856 0.49297,0.44092 0.49298,-0.22112 0.49297,-0.69876 0.49297,0.0433 0.49297,0.91988 0.49297,0.54751 0.49298,-0.22024 0.49297,-0.0946 0.49297,-0.21715 0.49297,0.81463 0.49298,0.36618 0.49297,-0.44712 0.49297,0.9818 0.49297,1.23565 0.49298,0.71821 0.49297,0.92607 0.49297,-0.89202 0.49297,0.007 0.49298,-0.12782 0.49297,0.20255 0.49297,-1.53106 0.49297,0.10393 0.49297,0.28834 0.49298,0.62755 0.49297,-0.79295 0.49297,-1.51736 0.49297,-0.58554 0.49298,-0.80755 0.49297,0.73989 0.49297,0.6877 0.49297,0.4679 0.49298,-0.69212 0.49297,-0.86195 0.49297,0.30029 0.49297,-0.29233 0.49298,-0.57094 0.49297,0.27552 0.49297,-0.36176 0.49297,0.57581 0.49298,-0.35513 0.49297,-0.78588 0.49297,-1.3126 0.49297,-0.61207 0.49297,0.86548 0.49298,-0.89511 0.49297,-0.41969 0.49297,-0.30118 0.49297,1.47888 0.49298,0.51302 0.49297,0.83806 0.49297,0.19592 0.49297,-0.23484 0.49298,-0.92253 0.49297,-0.95968 0.49297,-0.33788 0.49297,0.14284 0.49298,-0.74652 0.49297,-0.98931 0.49297,-0.69787 0.49297,-0.41792 0.49297,-0.50638 0.49298,0.34274 0.49297,0.10437 0.49297,-0.5935 0.49297,0.69522 0.49298,0.45286 0.49297,0.72485 0.49297,0.18708 0.49297,0.0659 0.49298,-0.24014 0.49297,-0.26004 0.49297,-0.42059 0.49297,-0.21935 0.49298,-0.22466 0.49297,0.66912 0.49297,-0.54662 0.49297,0.3852 0.49298,-0.17513 0.49297,0.1685 0.49297,2.44033 0.49297,1.00524 0.49297,-0.0792 0.49298,0.337 0.49297,-0.58377 0.49297,-0.39891 0.49297,0.69875 0.49298,-0.0654 0.49297,0.85841 0.49297,-0.0486 0.49297,-0.63375 0.49298,-1.14365 0.49297,-0.69345 0.49297,-0.23882 0.49297,-0.13002 0.49298,-0.55237 0.49297,0.37813 0.49297,-0.46393 0.49297,-0.31797 0.49298,-0.54884 0.49297,0.59527 0.49297,0.25209 0.49297,-1.11978 0.49297,-0.67178 0.49298,-0.78366 0.49297,-0.33567 0.49297,-0.45464 0.49297,-0.0168 0.49298,-0.3569 0.49297,-1.0216 0.49297,-0.0221 0.49297,-0.11012 0.49298,-0.2083 0.49297,-0.82966 0.49297,-0.53291 0.49297,-0.57493 0.49298,0.51921 0.49297,1.35947 0.49297,0.65232 0.49297,-0.19989 0.49297,-0.31091 0.49298,0.30073 0.49297,-0.003 0.49297,-0.98401 0.49297,-0.58642 0.49298,-0.38564 0.49297,-0.74254 0.49297,-1.01541 0.49297,1.21177 0.49298,-0.32019 0.49297,-0.33832 0.49297,0.0849 0.49297,-0.40333 0.49298,0.11277 0.49297,0.79163 0.49297,-0.65939 0.49297,-0.32329 0.49298,-0.0929 0.49297,-1.62837 0.49297,0.38211 0.49297,0.40377 0.49297,0.10835 0.49298,0.31931 0.49297,-0.72618 0.49297,0.14241 0.49297,-0.63728 0.49298,0.15744 0.49297,-0.30162 0.49297,-0.68372 0.49297,0.0394 0.49298,-0.0438 0.49297,-0.5851 0.49297,0.78057 0.49297,-0.3047 0.49298,-0.58201 0.49297,-0.53247 0.49297,-0.52981 0.49297,0.0929 0.49298,0.7903 0.49297,-0.0394 0.49297,-0.84912 0.49297,-0.46746 0.49297,-1.03176 0.49298,1.70664 0.49297,0.4909 0.49297,1.07201 0.49297,0.0292 0.49298,-0.12914 0.49297,-0.58067 0.49297,-0.88318 0.49297,-0.6501 0.49298,-0.27243 0.49297,0.16717 0.49297,-1.20823 0.49297,-0.26933 0.49298,-0.13709 0.49297,-0.65055 0.49297,0.42456 0.49297,-0.40201 0.49297,-0.51876 0.49298,-0.95791 0.49297,0.41306 0.49297,-0.17557 0.49297,0.0761 0.49298,0.67796 0.49297,-0.28127 0.49297,-0.6218 0.49297,-0.36486 0.49298,0.0177 0.49297,-0.94508 0.49297,0.0287 0.49297,-0.46082 0.49298,-0.94509 0.49297,-0.68593 0.49297,-0.97914 0.49297,-0.66736 0.49298,-0.0955 0.49297,0.70892 0.49297,-0.24102 0.49297,-0.33125 0.49297,0.43606 0.49298,-0.29277 0.49297,-0.7704 0.49297,1.9627 0.49297,-1.15294 0.49298,-0.33478 0.49297,-0.73591 0.49297,0.73192 0.49297,-0.88715 0.49298,0.39714 0.49297,-0.10348 0.49297,-0.33832 0.49297,-0.84869 0.49298,1.57619 0.49297,-0.36088 0.49297,-1.73274 0.49297,-0.0805 0.49297,-0.50328 0.49298,-0.13489 0.49297,0.60013 0.49297,0.2742 0.49297,0.5108 0.49298,-0.24678 0.49297,0.35247 0.49297,0.1915 0.49297,-0.84779 0.49298,-0.35248 0.49297,-0.78809 0.49297,-0.5192 0.49297,-0.59483 0.49298,0.83674 0.49297,0.25474 0.49297,-0.31179 0.49297,-0.13843 0.49298,-0.0504 0.49297,-0.79472 0.49297,0.56254 0.49297,1.51824 0.49297,-0.53379 0.49298,1.25157 0.49297,-0.55149 0.49297,0.58819 0.49297,1.05565 0.49298,-0.15921 0.49297,0.11897 0.49297,1.51514 0.49297,-0.4931 0.49298,0.16982 0.49297,0.29498 0.49297,-0.64878 0.49297,0.39095 0.49298,-0.49001 0.49297,0.83231 0.49297,-1.6204 0.49297,0.34805 0.49298,0.53512 0.49297,-0.61429 0.49297,0.3945 0.49297,-0.71203 0.49297,0.291 0.49298,-0.58156 0.49297,-0.80003 0.49297,0.0283 0.49297,0.36486 0.49298,-0.44402 0.49297,-0.70494 0.49297,1.53593 0.49297,-0.0195 0.49298,-1.37893 0.49297,-0.41306 0.49297,-0.50948 0.49297,-0.24898 0.49298,-0.17248 0.49297,0.0425 0.49297,-0.58067 0.49297,-0.004 0.49297,-1.03 0.49298,-0.98711 0.49297,-0.92651 0.49297,0.47188 0.49297,0.4312 0.49298,0.38873 0.49297,0.27287 0.49297,-0.48559 0.49297,0.57271 0.49298,0.15789"
                 fill="none"
                 id="path1413" />
            </g>
            <g
               id="g1419">
              <path
                 style="fill:none"
                 stroke="#bbbbbb"
                 stroke-width="2px"
                 d="m 24.563889,161.76031 0.492972,-12.05869 0.492973,0.68992 0.492972,-1.17323 0.492972,0.58651 0.492973,-1.36045 0.492972,-1.53813 0.492973,-0.5264 0.492972,0.0449 0.492972,-2.0782 0.492973,0.78482 0.492972,-0.15638 0.492972,0.30025 0.492973,-1.0289 0.492972,-0.18466 0.492973,-1.4057 0.492972,0.14039 0.492972,-0.69623 0.492973,-0.78048 0.492972,-0.65061 0.492972,-0.97248 0.492973,-1.2821 0.492972,0.12423 0.492972,0.34599 0.492973,-1.49558 0.492972,-0.39528 0.492973,-0.18806 0.492972,-0.48191 0.492972,-0.23778 0.492973,-0.95677 0.492972,-0.87675 0.492972,-0.29454 0.492973,-1.1702 0.492972,-1.36301 0.492973,-0.81374 0.492972,-1.43997 0.492972,-0.84602 0.492973,-1.39707 0.492972,-0.89158 0.492972,-1.69912 0.492973,-1.06538 0.492972,-0.95659 0.492973,-1.16002 0.492972,-0.73059 0.492972,-1.10563 0.492973,-0.78853 0.492972,-1.83313 0.492972,-0.30604 0.492973,-0.87786 0.492972,-1.4466 0.492973,-0.72927 0.492972,-1.26926 0.492972,-1.31835 0.492973,-1.03133 0.492972,-1.44925 0.492972,-1.15737 0.492973,0.2742 0.492972,-1.84153 0.492972,-0.95128 0.492973,-1.12508 0.492972,-0.71468 0.492973,-0.66205 0.492972,-0.46657 0.492972,-1.43643 0.492973,0.21759 0.492972,-1.328518 0.492972,-1.238747 0.492973,-0.375024 0.492972,-1.058745 0.492973,-0.0575 0.492972,-0.429867 0.492972,-0.320634 0.492973,-0.906614 0.492972,-0.536003 0.492972,-0.937129 0.492973,0.521859 0.492972,0.110117 0.492973,-1.128178 0.492972,-0.532028 0.492972,0.813739 0.492973,-0.278175 0.492972,0.360435 0.492972,-0.01548 0.492973,0.708925 0.492972,-0.04909 0.492973,-0.298075 0.492972,-0.0088 0.492972,-0.444018 0.492973,-0.257835 0.492972,0.620922 0.492972,0.107465 0.492973,-0.770401 0.492972,0.122507 0.492972,0.293654 0.492973,-0.08624 0.492972,-0.482496 0.492973,-0.01017 0.492972,0.38122 0.492972,-0.435617 0.492973,-0.73502 0.492972,0.373701 0.492972,-1.202475 0.492973,-0.122507 0.492972,0.747404 0.492973,-0.370166 0.492972,-1.107831 0.492972,0.492665 0.492973,-0.721308 0.492972,-0.773053 0.492972,0.373256 0.492973,0.58023 0.492972,-0.177781 0.492973,0.615611 0.492972,-0.345838 0.492972,-1.176825 0.492973,-0.256952 0.492972,-0.222009 0.492972,0.23174 0.492973,0.209626 0.492972,-0.596594 0.492973,-0.769518 0.492972,-0.785875 0.492972,-0.270218 0.492973,-0.339644 0.492972,-1.021157 0.492972,0.263584 0.492973,-0.584218 0.492972,-0.569616 0.492972,-1.269701 0.492973,-0.09685 0.492972,-0.795606 0.492973,-1.01806 0.492972,0.311342 0.492972,-1.25997 0.492973,-0.05351 0.492972,0.592175 0.492972,-0.451535 0.492973,-0.651876 0.492972,-0.69964 0.492973,-0.852217 0.492972,-0.303385 0.492972,0.0013 0.492973,-1.187885 0.492972,-0.455963 0.492972,-1.909194 0.492973,-0.289673 0.492972,-0.192378 0.492973,1.107839 0.492972,1.375398 0.492972,1.208224 0.492973,-1.037515 0.492972,0.09464 0.492972,-0.225545 0.492973,-0.0097 0.492968,0.126926 0.49298,-0.433848 0.49297,-0.622683 0.49297,1.317019 0.49297,-0.482051 0.49298,-0.385201 0.49297,0.759341 0.49297,-0.806666 0.49297,0.840718 0.49298,0.499744 0.49297,-1.700451 0.49297,0.700523 0.49297,-0.906613 0.49297,0.03494 0.49298,-0.07563 0.49297,0.422788 0.49297,-0.814177 0.49297,0.670892 0.49298,-0.642152 0.49297,0.601906 0.49297,-0.293655 0.49297,0.311787 0.49298,0.851772 0.49297,0.506378 0.49297,0.283924 0.49297,-0.05307 0.49298,1.870715 0.49297,0.670454 0.49297,-0.830993 0.49297,-0.464803 0.49298,0.273754 0.49297,0.183977 0.49297,1.819861 0.49297,1.056086 0.49297,0.960127 0.49298,0.16054 0.49297,0.141516 0.49297,0.634628 0.49297,0.610753 0.49298,-1.454561 0.49297,-1.04504 0.49297,0.472765 0.49297,-0.14815 0.49298,0.575365 0.49297,0.913686 0.49297,1.448373 0.49297,-0.421911 0.49298,0.980912 0.49297,-1.07953 0.49297,0.217144 0.49297,0.666027 0.49298,0.123829 0.49297,-1.318787 0.49297,-0.930496 0.49297,0.09818 0.49297,0.178227 0.49298,-0.356892 0.49297,0.123829 0.49297,0.617379 0.49297,0.900419 0.49298,-0.03847 0.49297,0.324608 0.49297,-0.50461 0.49297,-0.455517 0.49298,0.271103 0.49297,-0.328152 0.49297,0.346723 0.49297,-0.520084 0.49298,-0.965431 0.49297,-1.091474 0.49297,-0.433403 0.49297,0.124713 0.49297,-0.447554 0.49298,-0.820817 0.49297,0.490897 0.49297,0.360435 0.49297,0.03317 0.49298,-0.535564 0.49297,0.232178 0.49297,-0.476747 0.49297,-0.58023 0.49298,-0.700079 0.49297,-0.114989 0.49297,-0.336553 0.49297,-0.419691 0.49298,0.463035 0.49297,-1.017615 0.49297,-0.632421 0.49297,0.211394 0.49298,-0.984448 0.49297,-0.324608 0.49297,0.368836 0.49297,-1.232552 0.49297,-1.518243 0.49298,-1.000374 0.49297,-0.306921 0.49297,0.241032 0.49297,-0.125604 0.49298,0.304715 0.49297,-0.8845 0.49297,0.181317 0.49297,-1.034863 0.49298,-0.191939 0.49297,0.724851 0.49297,0.293209 0.49297,0.166289 0.49298,-0.807105 0.49297,-0.343632 0.49297,-0.23041 0.49297,-1.199823 0.49297,-1.150292 0.49298,-0.622244 0.49297,-0.563428 0.49297,0.898206 0.49297,-0.467016 0.49298,-0.533351 0.49297,0.314878 0.49297,0.353363 0.49297,-0.05661 0.49298,-0.06324 0.49297,1.260415 0.49297,0.03008 0.49297,-0.118087 0.49298,0.0088 0.49297,-0.480722 0.49297,-0.81861 0.49297,-0.374586 0.49298,-0.146382 0.49297,0.271986 0.49297,-0.09641 0.49297,-0.13931 0.49297,0.287905 0.49298,0.524065 0.49297,0.425447 0.49297,-0.08668 0.49297,0.534234 0.49298,0.189281 0.49297,0.691683 0.49297,0.537332 0.49297,-0.396254 0.49298,-0.384317 0.49297,-0.792069 0.49297,0.261809 0.49297,-1.054325 0.49298,0.429429 0.49297,0.368836 0.49297,-0.18486 0.49297,-0.372818 0.49298,-1.103412 0.49297,-0.185305 0.49297,-0.0084 0.49297,-0.654089 0.49297,0.232185 0.49298,0.532912 0.49297,-0.580237 0.49297,-0.622245 0.49297,-0.843369 0.49298,1.209992 0.49297,0.04334 0.49297,-0.206974 0.49297,0.354247 0.49298,1.106509 0.49297,0.450206 0.49297,0.03273 0.49297,-0.257836 0.49298,0.878751 0.49297,-0.838504 0.49297,0.12914 0.49297,-0.275522 0.49297,-0.875215 0.49298,1.169308 0.49297,-0.367068 0.49297,-0.487355 0.49297,-0.903962 0.49298,0.21051 0.49297,-0.197243 0.49297,1.235204 0.49297,-0.239696 0.49298,0.06678 0.49297,-0.406876 0.49297,-0.178227 0.49297,-0.02609 0.49298,0.269773 0.49297,-0.989759 0.49297,-1.307733 0.49297,-0.412612 0.49298,1.273675 0.49297,-0.30869 0.49297,-0.04909 0.49297,-0.312225 0.49297,-0.17071 0.49298,0.654528 0.49297,-0.422349 0.49297,0.02698 0.49297,0.418814 0.49298,-0.07386 0.49297,0.172038 0.49297,-0.78632 0.49297,-0.307813 0.49298,-0.110562 0.49297,0.180447 0.49297,0.298075 0.49297,0.888474 0.49298,0.444909 0.49297,1.123757 0.49297,0.171148 0.49297,1.245374 0.49298,-0.171148 0.49297,-1.019828 0.49297,0.719985 0.49297,-0.319304 0.49297,-0.234838 0.49298,-0.468784 0.49297,0.568732 0.49297,0.256506 0.49297,0.757573 0.49298,0.450213 0.49297,0.998153 0.49297,0.812861 0.49297,0.375908 0.49298,-0.126042 0.49297,-0.0049 0.49297,-0.0035 0.49297,-0.214492 0.49298,0.06767 0.49297,0.337882 0.49297,-0.378122 0.49297,1.394414 0.49297,0.140194 0.49298,0.472759 0.49297,0.768633 0.49297,0.320634 0.49297,2.37488 0.49298,0.434733 0.49297,-0.703176 0.49297,0.613398 0.49297,0.576694 0.49298,-0.534234 0.49297,0.38431 0.49297,0.812854 0.49297,0.09509 0.49298,0.18486 0.49297,-0.21051 0.49297,0.09685 0.49297,1.481095 0.49298,1.475345 0.49297,0.865045 0.49297,-0.255622 0.49297,-0.596594 0.49297,-0.755367 0.49298,-0.602783 0.49297,-0.424563 0.49297,0.31975 0.49297,-0.164521 0.49298,-0.664259 0.49297,1.518244 0.49297,-0.734576 0.49297,0.650547 0.49298,-0.340973 0.49297,0.406431 0.49297,0.395809 0.49297,0.239257 0.49298,0.355131 0.49297,-0.154345 0.49297,-0.334785 0.49297,-0.07695 0.49297,-0.589077 0.49298,-0.572274 0.49297,0.865045 0.49297,1.034418 0.49297,1.375397 0.49298,0.780133 0.49297,0.333455 0.49297,0.03228 0.49297,0.721308 0.49298,0.215375 0.49297,-0.467899 0.49297,-0.640378 0.49297,-0.737672 0.49298,-0.193707 0.49297,-0.777919 0.49297,1.300216 0.49297,-0.289228 0.49298,0.602783 0.49297,-1.982608 0.49297,-1.003018 0.49297,0.286137 0.49297,0.392718 0.49298,0.243232 0.49297,-0.0513 0.49297,0.196805 0.49297,-0.527608 0.49298,-0.67841 0.49297,-0.208297 0.49297,-0.496647 0.49297,1.244928 0.49298,0.220241 0.49297,1.043272 0.49297,-0.358667 0.49297,0.585541 0.49298,0.947299 0.49297,-0.274193 0.49297,0.397138 0.49297,-0.343186 0.49298,0.477631 0.49297,-0.706719 0.49297,-0.691232 0.49297,-0.800032 0.49297,-0.757135 0.49298,-0.921203 0.49297,0.07032 0.49297,-0.486032 0.49297,0.08756 0.49298,1.650475 0.49297,-0.720863 0.49297,-0.66824 0.49297,-0.01106 0.49298,-1.054318 0.49297,-0.608539 0.49297,-0.259158 0.49297,-0.764207 0.49298,-0.396699 0.49297,-0.04467 0.49297,-0.05661 0.49297,-1.225028 0.49297,0.123829 0.49298,0.345394 0.49297,1.265719 0.49297,0.454194 0.49297,-0.02521 0.49298,0.216259 0.49297,2.068405 0.49297,0.568292 0.49297,-0.122506 0.49298,-0.845577"
                 fill="none"
                 id="path1417" />
            </g>
            <g
               id="g1423">
              <path
                 style="fill:none"
                 stroke="#009988"
                 stroke-width="2px"
                 d="m 24.563889,141.91803 0.492972,-11.2221 0.492973,2.20757 0.492972,1.20636 0.492972,-0.76746 0.492973,0.1476 0.492972,1.06326 0.492973,-2.83724 0.492972,-1.18277 0.492972,0.0982 0.492973,-2.57455 0.492972,-0.0855 0.492972,-2.31958 0.492973,-0.34577 0.492972,-2.81837 0.492973,-1.77304 0.492972,-2.86196 0.492972,-1.28348 0.492973,-1.34146 0.492972,-3.05767 0.492972,-1.20649 0.492973,-0.76253 0.492972,-1.35199 0.492972,-1.86784 0.492973,-0.91459 0.492972,-1.716 0.492973,-0.2302 0.492972,-1.6179 0.492972,-0.37998 0.492973,-2.284195 0.492972,0.01584 0.492972,-1.387193 0.492973,-1.694237 0.492972,-0.959601 0.492973,-0.732719 0.492972,-1.558834 0.492972,-0.897754 0.492973,-0.565688 0.492972,-1.426974 0.492972,-1.253033 0.492973,-0.391524 0.492972,-2.034427 0.492973,-0.539963 0.492972,-1.032205 0.492972,-0.827883 0.492973,0.173152 0.492972,-1.260833 0.492972,-1.869312 0.492973,-0.519254 0.492972,-0.941711 0.492973,-0.753841 0.492972,-1.363447 0.492972,-1.086008 0.492973,-1.035903 0.492972,-0.761973 0.492972,-0.03141 0.492973,-0.468864 0.492972,-0.442048 0.492972,-0.35862 0.492973,-1.302152 0.492972,-0.88141 0.492973,-0.623128 0.492972,-1.988803 0.492972,-1.190092 0.492973,-0.948628 0.492972,-1.434661 0.492972,-0.704059 0.492973,-2.655269 0.492972,-1.27854 0.492973,-1.324105 0.492972,-0.808434 0.492972,-2.187807 0.492973,-1.421387 0.492972,-1.749106 0.492972,-0.809312 0.492973,-1.087054 0.492972,-1.886189 0.492973,-1.941929 0.492972,-0.875215 0.492972,-1.600052 0.492973,-0.776596 0.492972,-1.039722 0.492972,-1.288717 0.492973,-0.203 0.492972,-1.488612 0.492973,-1.003025 0.492972,-1.382032 0.492972,-0.957029 0.492973,-0.286569 0.492972,-0.428551 0.492972,-0.910589 0.492973,-0.762439 0.492972,-0.546617 0.492972,-0.673997 0.492973,-0.856184 0.492972,-1.43599 0.492973,-0.821702 0.492972,-0.499299 0.492972,-0.738118 0.492973,-0.505494 0.492972,-0.909266 0.492972,-0.919429 0.492973,-1.229022 0.492972,-0.635505 0.492973,-1.240522 0.492972,-0.393595 0.492972,-0.974723 0.492973,-0.270212 0.492972,-0.22732 0.492972,-1.340017 0.492973,-0.413057 0.492972,0.27287 0.492973,-0.690799 0.492972,-0.452859 0.492972,-0.549276 0.492973,-0.379451 0.492972,-0.258713 0.492972,0.601899 0.492973,-0.153022 0.492972,-0.616489 0.492973,0.942872 0.492972,-0.175574 0.492972,-0.946422 0.492973,0.416162 0.492972,-0.330365 0.492972,-0.240142 0.492973,0.568739 0.492972,-0.130902 0.492972,0.180879 0.492973,-0.01504 0.492972,0.719101 0.492973,0.227307 0.492972,0.169825 0.492972,-0.690786 0.492973,-0.367521 0.492972,-0.321511 0.492972,0.158772 0.492973,-0.0146 0.492972,0.773937 0.492973,-0.7841 0.492972,-0.36972 0.492972,-0.333024 0.492973,-0.148595 0.492972,-0.862825 0.492972,-0.705389 0.492973,-0.30869 0.492972,1.293576 0.492973,0.215375 0.492972,-0.45109 0.492972,-0.471874 0.492973,0.0049 0.492972,1.104303 0.492972,-0.09597 0.492973,0.658948 0.492968,0.129579 0.49298,0.03317 0.49297,0.998153 0.49297,0.886714 0.49297,-0.63861 0.49298,-0.433396 0.49297,-0.777042 0.49297,-0.103922 0.49297,0.664252 0.49298,0.637287 0.49297,0.01548 0.49297,-0.191932 0.49297,0.733246 0.49297,0.264907 0.49298,0.879196 0.49297,0.126475 0.49297,0.720869 0.49297,-0.05971 0.49298,0.764652 0.49297,1.498789 0.49297,1.237863 0.49297,0.99019 0.49298,-0.05041 0.49297,0.44225 0.49297,0.30869 0.49297,0.918106 0.49298,-0.156559 0.49297,0.0345 0.49297,0.623129 0.49297,0.138864 0.49298,0.246782 0.49297,0.01105 0.49297,1.068038 0.49297,-0.264462 0.49297,0.04776 0.49298,-0.126934 0.49297,-0.0451 0.49297,0.153454 0.49297,-0.35424 0.49298,0.609417 0.49297,-0.278606 0.49297,0.176897 0.49297,0.405985 0.49298,-0.420588 0.49297,-0.173362 0.49297,0.226443 0.49297,-0.131347 0.49298,-0.510366 0.49297,0.497531 0.49297,-0.117635 0.49297,-0.392718 0.49298,0.413948 0.49297,-0.522742 0.49297,0.941104 0.49297,-0.840718 0.49297,0.241032 0.49298,1.078646 0.49297,0.09685 0.49297,-0.763316 0.49297,-0.410857 0.49298,0.01814 0.49297,-0.261371 0.49297,-0.733692 0.49297,-0.758025 0.49298,-0.35733 0.49297,-0.0062 0.49297,0.109685 0.49297,0.231288 0.49298,-0.555903 0.49297,0.558562 0.49297,-0.591737 0.49297,0.554149 0.49297,-0.874337 0.49298,-0.441805 0.49297,-0.791186 0.49297,-0.791186 0.49297,0.642591 0.49298,0.319743 0.49297,0.464371 0.49297,-1.269701 0.49297,0.137096 0.49298,-0.308244 0.49297,-0.785436 0.49297,-0.19061 0.49297,-0.345845 0.49298,0.111008 0.49297,-0.0575 0.49297,0.230411 0.49297,-0.646127 0.49298,0.594381 0.49297,0.004 0.49297,-0.62711 0.49297,-1.13305 0.49297,0.604126 0.49298,0.183524 0.49297,0.505049 0.49297,0.117648 0.49297,-0.689032 0.49298,-0.182201 0.49297,0.08314 0.49297,-0.170703 0.49297,-0.871233 0.49298,0.497086 0.49297,0.620915 0.49297,-0.516993 0.49297,-0.0088 0.49298,-0.08933 0.49297,-0.711138 0.49297,0.237928 0.49297,0.218911 0.49297,0.71203 0.49298,-0.11808 0.49297,0.310457 0.49297,0.264017 0.49297,-0.07296 0.49298,0.306922 0.49297,-0.155681 0.49297,-0.370166 0.49297,-0.611184 0.49298,-0.0115 0.49297,0.07342 0.49297,-0.07872 0.49297,-0.460389 0.49298,-0.756689 0.49297,-0.35424 0.49297,-0.125152 0.49297,-0.468784 0.49298,0.312225 0.49297,1.219724 0.49297,-0.574488 0.49297,-0.765974 0.49297,1.121105 0.49298,0.04467 0.49297,-0.01239 0.49297,0.573165 0.49297,0.294532 0.49298,0.362649 0.49297,0.563866 0.49297,0.05439 0.49297,-0.01636 0.49298,-0.329474 0.49297,0.395809 0.49297,0.04821 0.49297,-0.343631 0.49298,-0.0345 0.49297,0.331255 0.49297,0.681056 0.49297,-0.90573 0.49298,0.279065 0.49297,-0.597486 0.49297,0.03892 0.49297,-0.03892 0.49297,-0.609862 0.49298,0.657194 0.49297,-0.483387 0.49297,0.439159 0.49297,-0.189287 0.49298,-0.174238 0.49297,-0.791631 0.49297,0.528046 0.49297,-0.144182 0.49298,-0.291873 0.49297,-0.735027 0.49297,0.733691 0.49297,-0.3476 0.49298,-0.01769 0.49297,-0.34849 0.49297,-0.878319 0.49297,-0.12028 0.49297,-0.23705 0.49298,-0.414394 0.49297,0.425893 0.49297,-0.91148 0.49297,0.399359 0.49298,-0.04201 0.49297,-0.008 0.49297,-0.04998 0.49297,-0.299849 0.49298,-0.07916 0.49297,0.268889 0.49297,0.797367 0.49297,-0.606325 0.49298,-0.379883 0.49297,0.366616 0.49297,-0.549709 0.49297,-0.763329 0.49298,0.297191 0.49297,-0.388737 0.49297,-0.02962 0.49297,0.155668 0.49297,0.138433 0.49298,1.737593 0.49297,-0.247659 0.49297,0.266676 0.49297,0.949957 0.49298,1.225919 0.49297,-0.189733 0.49297,0.437824 0.49297,0.826128 0.49298,-1.027792 0.49297,0.960566 0.49297,0.490905 0.49297,-0.0659 0.49298,0.355576 0.49297,0.356899 0.49297,0.455517 0.49297,0.01768 0.49298,-0.84115 0.49297,-0.435623 0.49297,-0.352027 0.49297,0.614721 0.49297,-0.255177 0.49298,0.440037 0.49297,0.116757 0.49297,0.5882 0.49297,0.326816 0.49298,-0.960566 0.49297,-0.394486 0.49297,-0.0796 0.49297,0.53246 0.49298,-0.404649 0.49297,3.608762 0.49297,1.291807 0.49297,1.566892 0.49298,-0.08137 0.49297,0.211826 0.49297,-0.01813 0.49297,-0.333901 0.49297,1.034864 0.49298,0.682391 0.49297,0.292332 0.49297,0.928283 0.49297,-0.07209 0.49298,-0.344509 0.49297,0.654076 0.49297,-0.301604 0.49297,1.116233 0.49298,0.279943 0.49297,1.011865 0.49297,0.360435 0.49297,1.060965 0.49298,-0.229087 0.49297,-0.795168 0.49297,0.29985 0.49297,-0.11808 0.49298,0.201217 0.49297,-0.459943 0.49297,-0.33876 0.49297,0.113221 0.49297,-0.681959 0.49298,-0.130011 0.49297,0.411735 0.49297,0.330796 0.49297,-0.03096 0.49298,-0.03493 0.49297,-0.405108 0.49297,-0.110562 0.49297,-0.483819 0.49298,0.196359 0.49297,-0.938013 0.49297,-0.41438 0.49297,0.04466 0.49298,-0.704498 0.49297,0.514334 0.49297,-0.997276 0.49297,0.120293 0.49297,-1.074664 0.49298,0.340973 0.49297,-0.755812 0.49297,0.35204 0.49297,0.088 0.49298,-1.004348 0.49297,0.236605 0.49297,-0.471442 0.49297,-0.536887 0.49298,-0.340082 0.49297,0.617811 0.49297,0.364861 0.49297,0.624452 0.49298,0.157894 0.49297,-1.075555 0.49297,-0.629323 0.49297,0.456839 0.49298,-1.067147 0.49297,0.99949 0.49297,0.240587 0.49297,-0.0062 0.49297,-0.480729 0.49298,-0.201217 0.49297,-1.061411 0.49297,-1.620405 0.49297,-1.781821 0.49298,-0.209181 0.49297,-0.56697 0.49297,-1.354607 0.49297,-0.03141 0.49298,-0.138864 0.49297,0.419252 0.49297,-0.875215 0.49297,-1.357265 0.49298,-0.197682 0.49297,-0.253854 0.49297,-0.294977 0.49297,-0.573597 0.49298,-0.770401 0.49297,-0.0858 0.49297,-0.240587 0.49297,-0.107013 0.49297,-0.232192 0.49298,-0.340082 0.49297,-0.128256 0.49297,-0.0044 0.49297,-0.01725 0.49298,-1.950756 0.49297,0.383433 0.49297,0.799135 0.49297,-0.303372 0.49298,-0.581128 0.49297,-0.240141 0.49297,-0.359989 0.49297,0.188841 0.49298,-0.486477 0.49297,0.954384 0.49297,0.09021 0.49297,-0.222893 0.49297,-0.0566 0.49298,-0.0053 0.49297,0.309567 0.49297,0.267566 0.49297,-0.565202 0.49298,-0.444896 0.49297,0.947299 0.49297,0.467016 0.49297,0.164953 0.49298,0.606771"
                 fill="none"
                 id="path1421" />
            </g>
            <g
               id="g1427">
              <path
                 style="fill:none"
                 stroke="#0077bb"
                 stroke-width="2px"
                 d="m 24.191271,162.83645 0.361064,-1.97907 0.120354,-5.83106 0.722128,-4.93873 0.120355,-1.29995 0.361063,2.75062 0.120355,0.3653 0.361064,-0.46178 0.120354,-0.13213 0.120355,-0.54322 0.240709,-0.17557 0.120355,-0.48968 0.361063,-0.98139 0.120355,0.0251 0.722127,0.13819 0.361064,0.79155 h 0.120355 l 0.120354,-0.47345 0.120355,-0.41222 0.120354,0.37732 0.842483,-0.41037 0.120354,0.0408 0.120355,0.0998 0.240709,0.5283 0.120354,0.24254 0.24071,0.45437 0.361063,0.29913 0.361064,0.38111 0.120355,0.24328 0.120354,-0.0827 0.120355,-0.003 0.240709,-0.76691 0.120355,0.0195 0.120354,0.30999 0.120355,0.0136 0.240709,-0.0186 0.120355,-0.11293 0.722127,-0.52166 0.240709,-0.0535 0.120355,-0.0146 0.240709,0.21671 0.120355,0.0146 0.240709,-0.13223 0.481418,-0.46304 0.120355,-0.37989 0.601773,-0.92253 0.481418,-0.11057 0.120354,0.40201 0.361064,0.96145 0.361064,0.77084 0.120355,0.22024 0.240709,-0.0951 0.601773,0.11852 0.240709,0.61827 0.601773,-0.56697 0.481418,-0.31311 0.120355,-0.27641 0.240709,-0.031 0.240709,0.70539 0.120355,-0.19459 0.120354,-0.27862 0.481418,-0.68284 0.120355,0.10128 0.722128,0.50505 0.120354,-0.21007 0.240709,0.58156 0.120355,0.23174 0.361064,0.11852 0.842482,-0.18619 0.240709,0.47542 0.120354,0.17513 0.24071,0.15921 0.240709,0.009 0.240709,0.95659 0.481418,-0.75227 0.120355,-0.10658 0.120354,0.007 0.361064,-0.47099 0.120355,-0.0451 0.120354,-0.12383 0.120355,-0.19504 0.240709,-0.44578 0.120355,-0.0743 0.361063,0.51876 0.120355,-0.13931 0.120355,0.40554 0.361063,-0.23351 0.120355,0.13931 0.120354,0.0845 0.120355,0.28879 0.361064,0.17911 0.481418,0.13754 0.120355,-0.0964 0.240709,-0.51699 0.120354,-0.26358 0.120355,-0.16673 0.120355,0.1172 0.240709,0.22731 0.240709,0.0991 0.240709,-0.50107 0.240709,-0.21803 0.240709,-0.031 0.120355,-0.56873 0.240709,0.22112 0.120355,0.16939 h 0.120354 l 0.120355,-0.35336 0.120355,-0.12162 0.240709,0.0358 0.120354,-0.0491 0.481419,0.29587 0.722127,0.11852 0.240709,-0.0867 0.120355,-0.15037 0.120354,0.34009 0.24071,-0.50151 h 0.120354 l 0.240709,0.26005 0.120355,-0.36751 0.120355,0.23572 0.120354,-0.0119 0.601773,-0.40377 0.120355,-0.11543 0.120354,-0.0876 0.361064,-0.0318 0.120355,-0.35159 0.120354,-0.37724 0.120355,0.20741 0.240709,-0.56652 0.962837,-1.20557 0.120354,0.25694 0.361064,0.65232 0.120354,0.15214 0.120355,-0.23307 0.240709,-0.2198 0.240709,-0.35512 0.24071,0.0946 0.120354,-0.41616 0.240709,0.18751 0.240709,-0.19635 0.120355,0.12427 0.240709,0.81374 0.601773,1.38734 0.120355,-0.046 0.120354,0.0455 0.120355,0.25209 0.722127,-0.63109 0.24071,-0.33965 0.240709,-0.27508 0.120354,-0.21538 0.361064,0.45552 0.120355,-0.092 0.361063,-0.21405 0.24071,0.69036 0.120354,0.0761 0.361064,0.43297 0.240709,-0.31533 0.601773,-0.29542 0.120355,-0.18088 0.120354,-0.0708 0.120355,-0.27641 0.601773,0.0221 0.120354,-0.14551 0.240709,0.17248 0.361064,0.56696 0.120355,0.65454 0.120354,0.0367 0.120355,0.21759 0.240709,-0.30073 0.240709,-0.52318 0.240709,-0.13622 0.120355,0.20344 0.120354,0.29365 0.481419,0.51124 0.240709,0.4542 0.240709,0.16938 0.120355,0.10923 0.120354,0.0177 0.120355,-0.35866 0.120354,0.0287 0.120355,-0.0792 0.120355,0.15258 0.722127,-0.35955 0.361064,0.39227 0.120354,0.36221 0.842483,0.92518 0.120354,0.42103 0.481418,-0.60589 0.120355,0.004 0.120355,0.18486 0.120354,0.34452 0.120355,0.90174 0.120354,0.37901 0.120355,0.19194 0.120355,0.35203 0.120354,0.4595 0.120355,0.2963 0.240709,0.54353 0.120354,0.26756 0.24071,0.36044 0.481418,-0.2229 0.120355,0.12604 0.361063,-0.6019 0.120355,0.12737 0.120354,-0.20167 0.120355,-0.0699 0.361064,0.53025 0.361064,0.66471 0.120354,-0.23086 0.361064,0.24103 0.120354,-0.25164 0.481419,-0.90308 0.120354,-0.32461 0.361064,0.66603 0.120355,0.19459 0.120354,-0.0809 0.120355,0.39006 0.120354,0.60942 0.120355,-0.0999 0.120355,-0.17735 0.120354,0.0845 0.240709,-0.53202 0.120355,-0.18354 0.120355,0.16275 0.120354,-0.32815 0.481418,0.40377 0.120355,-0.20874 0.120355,0.0115 h 0.120354 l 0.120355,-0.57094 0.240709,0.47011 0.240709,0.29144 0.240709,-0.49709 0.120355,-0.0168 0.361064,-0.82966 0.120354,-0.0433 0.120355,-0.30073 0.240709,-0.46127 0.240709,0.16407 0.481418,-0.4564 0.120355,-0.37326 0.361064,0.27331 0.120354,0.0341 0.120355,-0.0694 0.120355,-0.10481 0.120354,0.64524 0.120355,0.0305 0.120354,0.21891 0.240709,-0.43208 0.120355,-0.20343 0.120355,-0.023 0.120354,-0.0995 0.240709,0.31488 0.361064,0.32372 0.481418,0.60766 0.361064,0.0495 0.120355,-0.01 h 0.120354 l 0.361064,0.2083 0.240709,1.04548 0.120355,-0.19327 0.120354,-0.0593 0.120355,-0.30073 0.120355,0.038 0.120354,0.23527 0.120355,-0.005 0.361063,0.15611 0.120355,-0.0177 0.120355,-0.17203 0.120354,-0.19415 0.361064,0.0942 0.842482,-0.91546 0.361064,1.08351 0.120354,0.0765 0.24071,-0.0234 0.120354,0.0854 0.120355,-0.33037 0.120354,0.24634 0.120355,-0.21096 0.240709,0.28702 0.120355,0.29897 0.120354,-0.55503 0.240709,-0.17026 0.120355,-0.0964 0.361064,0.18574 0.240709,0.61473 0.240709,-0.7903 0.120355,0.245 0.120354,-0.23439 0.722128,-0.71821 0.120354,-0.14462 0.120355,-0.40864 0.481418,0.59527 0.361064,0.27729 0.240709,-0.0876 0.361064,-0.26226 0.481418,0.29764 0.481419,-0.0615 0.120354,0.0588 0.120355,0.17602 0.240709,0.2366 0.240709,-0.0761 0.120355,-0.16939 0.120354,-0.1853 0.240709,0.89113 0.24071,0.30825 0.120354,-0.21626 0.120355,-0.14859 0.120354,0.30692 0.240709,0.22731 0.120355,0.44712 0.120355,0.19813 0.240709,0.22776 0.361064,0.30471 0.240709,0.111 0.361063,-0.42191 0.120355,0.1915 0.240709,0.2052 0.240709,-0.0371 0.24071,-0.0814 0.240709,-0.3768 0.120354,-0.0367 0.361064,-0.54928 0.240709,0.30294 0.120355,-0.23395 0.481416,-0.67487 0.24071,-0.4365 0.24071,-0.40599 0.36106,-0.873 0.12036,-0.20166 0.12035,0.0694 0.12036,0.13135 0.12035,0.21493 0.12036,0.12737 0.48142,-0.34717 0.2407,-0.0279 0.12036,0.12295 0.12035,-0.004 0.12036,0.11676 0.12035,-0.002 0.36107,-0.14903 0.12035,0.073 0.12036,0.0668 0.84248,-0.68726 0.36106,-0.93315 0.60177,-0.99462 0.12036,0.0522 0.12035,-0.0402 0.36107,0.41394 0.24071,0.57758 0.12035,-0.0411 0.12036,-0.0416 0.36106,-0.29233 0.60177,-0.29365 0.24071,-0.22732 0.12036,0.55856 0.12035,-0.22245 0.12036,-0.0823 0.2407,0.15125 0.36107,0.27862 0.12035,0.002 0.24071,0.24103 0.48142,0.78234 h 0.12035 l 0.24071,-0.71822 0.36107,-0.75226 0.24071,-0.55989 0.24071,-0.35292 0.12035,0.44181 0.12036,0.53777 0.2407,-0.5674 0.24071,-0.10924 0.12036,-0.68946 0.12035,-0.0805 0.12036,-0.10924 0.12035,-0.12604 0.24071,0.66028 0.12036,-0.0924 0.12035,-0.0438 0.60177,0.45641 0.12036,-0.77217 0.12035,0.26048 0.24071,0.57626 0.12036,-0.0624 0.12035,-0.004 0.12036,-0.13312 0.84248,-0.49709 0.36106,-0.55458 0.12036,-0.21051 0.2407,-0.43473 0.60178,0.25076 0.12035,0.0699 0.12036,-0.20034 0.36106,0.54618 0.12036,0.11985 0.36106,-0.46481 0.12035,-0.20431 0.24071,0.25208 0.12036,0.0208 0.24071,-0.55281 0.12035,-0.10393 0.12036,0.0376 0.12035,-0.0946 0.12035,-0.1026 0.72213,1.47358 0.12036,-0.0849 0.24071,0.40996 0.24071,-0.39802 0.2407,-0.0115 0.12036,-0.17115 0.36106,-0.24059 0.12036,0.33877 0.48142,-0.0142 0.12035,-0.038 0.12035,-0.0752 0.12036,-0.22599 0.36106,-0.51036 0.36107,0.0854 0.60177,0.21803 0.12035,-0.19061 0.24071,0.1654 0.12036,-0.37592 0.12035,-0.21493 0.24071,-0.16186 0.12036,-0.51345 0.12035,0.0796 0.12036,-0.0345 0.48141,0.46038 0.12036,0.61251 0.24071,-0.16053 0.12035,0.25341 0.12036,0.17469 0.24071,0.17159 0.12035,-0.14771 0.36106,-0.31665 0.24071,-0.39759 0.60178,0.5024 0.12035,0.51522 0.36106,-0.17336 0.36107,-0.10172 0.36106,0.59262 0.24071,-0.0544 0.36107,-0.2313 0.12035,0.82303 0.48142,-0.35645 0.12035,0.43429 1.20355,-0.95836 0.24071,0.16584 0.12035,-0.2795 0.12036,-0.42102 0.12035,0.32992 0.24071,0.45861 0.24071,-0.11764 0.24071,0.72264 0.36106,-0.0172 0.24071,0.009 0.12036,0.5475 0.36106,0.0743 0.12035,0.10791 0.24071,-0.027 0.24071,0.1318 0.12036,-0.0509 0.12035,-0.0137 0.24071,-0.0916 0.12036,-0.40245 0.36106,-0.11852 0.48142,1.1127 0.12035,0.0876 0.24071,-0.19194 0.24071,-0.12339 0.48142,1.06582 0.12035,-0.43782 0.12036,-0.10482 0.12035,-0.061 0.12036,-0.19945 0.12035,0.12339 0.12036,-0.25386 0.24071,-0.36397 0.48141,-0.1256 0.24071,0.31533 0.12036,-0.08 0.36106,1.10165 0.48142,0.27331 0.36106,-0.0774 0.24071,0.28702 0.12036,0.0911 0.12035,-0.34805 0.48142,0.3622 0.24071,0.40023 0.12035,0.0566 0.12036,-0.12781 0.12035,0.0668 0.24071,-0.3078 0.12036,0.55591 0.36106,-0.45862 0.60177,-0.11056 0.24071,0.0646 0.12036,0.0937 0.24071,-0.0177 0.12035,-0.21803 0.48142,0.0226 0.24071,-0.19724 0.12035,0.006 0.12036,-0.0252 0.24071,-0.47763 0.24071,0.008 0.12035,-0.35159 0.12036,-0.0659 0.2407,-0.60367 0.12036,0.27773 0.24071,0.0778 0.12035,0.11454 0.12036,0.50417 0.12035,0.34805 0.12036,-0.11676 0.12035,0.24545 0.60177,-0.71954 0.24071,-0.14771 0.24071,-0.2167 0.12036,-0.13577 0.12035,-0.13843 0.60177,-0.0854 0.48142,-0.35336 0.24071,-0.24279 0.12036,-0.45287 0.72212,-0.10349 h 0.12036 l 0.12035,-0.36706 0.12036,0.0557 0.12035,-0.0248 0.48142,-0.74741 0.24071,0.0376 0.12035,-0.0946 0.72213,-0.0761 0.12036,0.30073 0.36106,-0.14594 0.24071,0.48206 0.12035,-0.42412 0.12036,-0.2313 0.24071,-0.32107 0.36106,-0.4511 0.12036,0.20167 0.12035,0.39051 0.24071,0.3989 0.12035,0.11455 0.12036,-0.21096 0.12035,0.30737 0.12036,-0.28172 0.12035,-0.15523 0.36107,-0.38475 0.12035,-0.0991 0.24071,-0.64568 0.12036,-0.27596 0.12035,-0.203 0.36106,0.67885 0.12036,0.0739 0.12035,-0.0522 0.48142,0.0517 0.12036,-0.33213 0.12035,-0.25032 0.60177,0.37547 0.24071,0.46393 0.24071,0.39935 0.12036,-0.0199 h 0.12035 l 0.36106,-1.07511 0.12036,0.34318 0.12035,-0.11366 0.12036,-0.21714 0.12035,-0.33699 0.12036,-0.0358 0.12035,0.0234 h 0.12036 l 0.24071,-0.20786 0.36106,-0.0761 0.24071,0.16098 0.12035,0.42854 0.36107,-0.58819 0.12035,-0.005 0.24071,-0.20698 h 0.12036 l 0.12035,-0.37635 0.12035,-0.52937 0.12036,-0.0133 0.24071,-0.34142 0.12035,-0.10747 0.12036,-0.23129 0.36106,0.57669 0.36106,0.0703 0.36107,0.18486 0.12035,-0.20786 0.24071,-0.52716 0.12036,0.14771 0.12035,-0.20918 0.12036,0.0796 0.12035,0.13312 0.12036,-0.003 0.2407,0.56121 0.60178,-0.21228 0.24071,0.45065 0.24071,-0.50195 0.2407,-0.51611 0.12036,0.51301 0.72213,-0.29011 0.12035,-0.22909 0.24071,-0.3507 0.12036,0.10348 0.12035,0.0349 0.48142,0.0495 0.24071,0.70804 0.24071,0.3392 0.24071,-0.22997 0.12035,0.23572 0.12035,0.22953 0.36107,0.3025 0.12035,0.40377 h 0.12036 l 0.24071,-0.50239 0.12035,0.28525 0.36107,0.99108 0.12035,0.19017 0.36106,-0.26978 0.12036,-0.27685 h 0.12035 l 0.24071,-0.009 0.48142,-0.0186 0.12035,-0.088 h 0.12036 l 0.24071,-0.49798 0.12035,0.16098 0.60178,-0.68858 0.24071,0.0318 0.36106,-0.1 0.12035,0.134 0.36107,-0.23439 0.12035,-0.19592 0.60177,0.40687 0.24071,-0.38918 0.12036,-0.13223 0.12035,-0.11941 0.12036,0.0893 0.12035,0.14904 0.12036,0.0248 0.12035,-0.36308 0.36107,0.14771 h 0.12035 l 0.12035,-0.64878 0.12036,-0.14993 0.24071,0.36619 0.24071,0.19238 0.12035,0.0632 0.36107,-0.0451 0.12035,0.19901 0.36106,-0.5652 0.36107,0.003 0.48142,0.32771 0.60177,1.27102 0.12035,-0.379 0.12036,-0.20123 0.48142,-0.44048 0.36106,1.17727 0.60177,1.17152 0.36107,-0.17336 0.36106,0.83276 0.24071,-0.002 0.12035,-0.13666 0.36107,0.0787 0.48142,0.19327 0.48141,-0.0442 0.48142,0.44402 0.12036,0.37326 0.60177,-0.94155 0.24071,-0.31886 0.12035,-0.55812 0.24071,0.5736 0.12036,0.038 0.24071,-0.11985 0.84248,-1.35152 1.08319,-1.67259 0.12036,0.0376 0.2407,-0.0301 0.12036,0.11012 0.36106,-0.54706 0.12036,-0.30515 0.24071,-0.54839 0.48141,-0.49709 0.24071,0.0999 0.48142,-0.40244 0.12036,-0.0106 0.12035,-0.21493 0.12036,0.0991 0.12035,0.17469 0.48142,-0.33743 0.12035,0.25473 0.24071,0.0938 0.12036,0.33478 0.48142,-0.9411 0.60177,0.57315 0.12035,-0.2167 0.48142,-0.58289 0.36107,-0.48382 0.36106,0.25518 0.12035,0.34628 0.24071,-0.0128 0.12036,0.36972 0.36106,-0.0708 0.24071,0.24545 0.96284,2.19753 0.36106,0.4856 0.12036,1.12022 0.2407,0.29365 0.24071,-0.20963 0.12036,0.2857 1.08319,-0.11278 0.12035,-0.0394 0.48142,0.74298 0.24071,-0.64436 0.12036,0.84382 0.12035,0.0115 0.12036,-0.0699 0.36106,-0.44667 0.24071,-0.0876 0.12035,-0.0221 0.12036,0.0686 0.12035,0.0588 0.12036,-4.4e-4 0.12035,-0.29454 0.12036,0.10393 0.2407,0.6249 0.12036,0.45109 0.12035,-0.0938 0.12036,0.14993 0.12035,-0.25784 0.12036,0.41881 0.12035,-0.36618 0.12036,0.57272 0.24071,0.29542 0.84248,-0.35513 0.36106,-0.27287 0.12036,-0.13709 0.24071,0.99639 0.12035,0.21581 0.48142,-0.12869 0.12035,-0.17779 0.12036,-0.0743 0.48142,-0.26226 0.12035,0.1287 0.12036,0.0681 0.12035,-0.0646 0.12035,4.5e-4 0.24071,0.13002 0.12036,-0.0562 0.48142,-0.65585 0.12035,0.54617 0.12036,0.061 0.2407,0.84338 0.36107,-0.18088 0.48142,-0.20875 0.12035,0.52407 0.12036,-0.28171 0.24071,0.37812 0.2407,0.1287 0.12036,-0.21538 0.84248,-0.84426 0.36106,-0.66691 0.24071,-0.22776 0.72213,-0.44711 0.36107,-0.21273 0.12035,-0.0261 0.36106,0.76067 0.48142,0.054 0.24071,-0.30781 0.12036,0.10437 0.36106,-0.0438 0.12035,0.44225 0.12036,0.0672 0.24071,-0.22112 0.24071,0.0946 0.60177,-0.11012 0.24071,-0.54353 0.12035,0.29012 0.12036,0.26225 0.24071,-0.44357 0.24071,0.55812 0.12035,-0.28835 0.12036,-0.58156 0.12035,-0.0407 0.36106,-0.22378 0.24071,0.0517 0.12036,-0.0884 0.12035,0.1769 h 0.12036 l 0.12035,-0.20476 0.36106,0.21626 0.60178,0.25871 0.60177,0.74519 0.12036,0.20255 0.12035,0.005 0.48142,-0.11587 0.12035,0.35645 0.12036,0.24457 0.84248,-0.66028 0.12035,-0.17071 0.24071,-0.39095 0.12036,-0.35955 0.24071,0.17425 0.48142,-0.73591 0.2407,0.32461 0.24071,0.24324 0.24071,0.019 0.12036,0.0588 0.48142,-0.23484 0.48141,-0.76995 0.12036,0.18486 0.12035,0.18221 0.12036,-0.0159 0.24071,0.22776 0.12035,0.25651 0.60177,1.40635 0.12036,-0.57448 0.24071,-0.11499 0.24071,-0.41129 0.12035,-0.2649 0.12036,-0.0394 0.12035,-0.33655 0.24071,-0.13489 0.24071,0.1318 0.48142,-0.25164 0.24071,-0.42722 0.24071,-0.24898 0.36106,-0.01 0.12035,0.0694 0.48142,0.83276 0.36107,-0.0677 0.24071,-0.19857 0.12035,-0.14638 0.12035,-0.22334 0.12036,0.21405 0.36106,0.1685 0.12036,0.53821 0.12035,0.0402 0.12036,0.061 0.12035,-0.17734 0.12036,0.67222 0.36106,0.41439 0.12035,-0.0504 0.12036,0.001 0.24071,-0.13533 0.12035,-0.24457 0.12036,0.18752 0.12035,-0.14639 0.24071,-0.19149 0.24071,0.0867 0.36106,-0.19017 0.24071,0.0637 h 0.12036 l 0.12035,-0.30648 0.12036,-0.21538 0.72212,-0.12295 0.12036,-0.60322 0.36106,-0.49842 h 0.12036 l 0.12035,0.22068 0.12036,-0.0495 0.60177,0.54928 0.96284,0.90882 0.12035,0.30383 0.12036,-0.42191 0.36106,-0.0168 0.24071,-0.28215 0.36106,0.0814 0.12036,-0.22466 0.12035,-0.16408 0.12036,0.28658 0.2407,0.35159 0.12036,0.43694 0.36106,0.71601 0.60178,-0.0305 0.12035,0.38255 0.24071,0.25739 0.12035,-0.14285 0.24071,0.0641 0.84249,-0.80003 0.12035,0.10879 0.12035,-0.008 0.36107,0.35248 0.12035,0.1968 0.36107,0.51743 0.12035,0.21759 0.12036,-0.0177 0.12035,0.23748 0.24071,0.1402 0.12035,-0.0128 0.24071,0.26181 0.24071,0.30383 0.24071,0.0203 0.12036,0.009 0.36106,0.38254 0.24071,-0.3675 0.12035,0.14726 0.12036,-0.41438 0.48142,-0.0553 0.24071,-0.20122 0.48141,0.0602 0.24071,-0.0628 0.24071,-0.0133 0.12036,-0.34053 0.48142,-0.002 0.36106,-0.7651 0.12035,-0.14417 0.24071,-0.69035 0.12036,0.18132 0.24071,0.26756 0.12035,-0.29232 0.12036,0.11896 0.24071,-0.17646 0.12035,-0.33964 0.12035,0.0809 0.72213,0.48205 0.12036,-0.0831 0.12035,0.35159 0.12036,0.26888 0.12035,-0.21626 0.36106,0.54972 0.24071,0.69389 0.36107,-0.3768 0.48142,-0.93005 0.48141,-0.58598 0.12036,0.33434 0.12035,-0.44844 0.12036,0.0243 0.48142,-0.33213 0.12035,0.15214 0.12035,0.0274 0.12036,0.0487 0.12035,-0.0597 0.24071,0.4396 0.24071,-0.004 0.12036,0.25517 0.36106,0.38211 0.12036,-0.25164 0.2407,-0.11145 0.24071,0.3224 0.24071,-0.23085 0.12036,0.41836 0.48142,-0.55723 0.48141,0.16673 0.24071,-0.0407 0.12036,-0.0968 0.48142,0.0279 0.24071,-0.0314 0.12035,0.18221 0.12035,0.0314 0.36107,0.042 0.36106,-0.23528 0.24071,-0.3392 0.72213,-1.39574 0.12035,-0.35911 0.12036,0.22334 0.24071,0.24014 0.12035,-0.35911 0.36107,-0.50549 0.36106,0.004 0.12035,0.41218 0.36107,0.19193 0.12035,-0.27065 0.12036,0.0685 0.12035,0.0783 0.36106,0.13489 0.24071,0.46392 0.36107,8.9e-4 0.12035,-0.40864 0.24071,-0.29498 0.36107,0.35247 0.48141,0.0451 0.12036,-0.41527 0.12035,0.73502 0.12036,-0.26314 0.12035,0.23925 0.24071,-0.68504 0.12036,0.48736 0.12035,1.3241 0.12035,0.0486 0.72213,0.15744 0.24071,0.14374 0.12036,0.22731 0.12035,0.0907 0.12036,-0.17071 0.12035,-0.0708 0.12035,-0.17867 0.12036,-0.17424 0.24071,-0.30736 0.24071,-0.0226 0.12035,0.15611 0.12036,-0.111 0.24071,0.60898 0.12035,0.10039 0.12035,0.0469 0.24071,0.52274 0.48142,-0.24236"
                 fill="none"
                 id="path1425" />
            </g>
            <g
               id="g1431">
              <path
                 style="fill:none"
                 stroke="#ff7043"
                 stroke-width="2px"
                 d="m 24.191271,158.72353 0.361064,-4.03922 0.120354,0.89924 0.722128,-7.05389 h 0.120355 l 0.361063,-4.40038 0.120355,0.25705 0.361064,-3.84174 0.120354,0.40712 h 0.120355 l 0.240709,-1.3376 0.120355,-4.53689 0.361063,-0.0657 0.120355,0.99978 0.722127,-4.05003 0.361064,-1.4489 h 0.120355 l 0.120354,-2.7754 H 28.8851 l 0.120354,-1.54699 0.842483,-2.87597 0.120354,-1.07614 h 0.120355 l 0.240709,0.42864 h 0.120354 l 0.24071,-1.16105 0.361063,-0.83863 0.361064,-1.69759 h 0.120355 l 0.120354,-0.13768 0.120355,3e-5 0.240709,-0.62572 h 0.120355 0.120354 l 0.120355,-1.24828 0.240709,-1.00689 h 0.120355 l 0.722127,-1.75511 0.240709,-0.0124 h 0.120355 l 0.240709,-0.74057 h 0.120355 l 0.240709,0.35514 0.481418,-1.05178 0.120355,-0.65038 0.601773,-0.23867 0.481418,-0.71137 0.120354,0.10441 0.361064,-0.3246 0.361064,-0.2119 0.120355,0.29 0.240709,0.74939 0.601773,-0.19503 0.240709,-0.23422 0.601773,-0.70199 0.481418,-0.47767 h 0.120355 l 0.240709,-0.43827 0.240709,-0.84377 h 0.120355 l 0.120354,0.0897 0.481418,-0.46571 h 0.120355 l 0.722128,-0.96909 0.120354,-0.0637 0.240709,0.6142 h 0.120355 l 0.361064,-0.42696 0.842482,0.75553 0.240709,0.52849 0.120354,-0.38918 0.24071,-0.14418 0.240709,-0.99771 0.240709,-0.84824 0.481418,0.12737 h 0.120355 l 0.120354,-0.5391 0.361064,-0.4741 0.120355,-0.17424 h 0.120354 0.120355 l 0.240709,-0.89689 h 0.120355 l 0.361063,-1.30508 h 0.120355 l 0.120355,-0.62799 0.361063,0.74563 0.120355,-0.25341 0.120354,0.28658 0.120355,-0.21714 0.361064,-0.50284 0.481418,3.06921 0.120355,-0.13753 0.240709,0.99329 0.120354,0.32063 0.120355,0.6616 0.120355,0.24501 0.240709,0.41307 0.240709,0.79516 0.240709,0.51787 0.240709,0.83586 0.240709,0.0217 h 0.120355 l 0.240709,-0.11365 h 0.120355 l 0.120354,0.0177 0.120355,0.19149 h 0.120355 l 0.240709,-0.42854 0.120354,-0.2198 0.481419,1.2666 0.722127,-0.2879 0.240709,-0.49487 0.120355,0.33478 h 0.120354 l 0.24071,-0.39581 0.120354,0.75492 0.240709,1.68629 0.120355,0.52628 0.120355,0.0252 h 0.120354 l 0.601773,2.44962 0.120355,0.89467 h 0.120354 l 0.361064,1.69869 0.120355,0.20874 0.120354,0.90396 0.120355,0.91811 0.240709,0.63772 0.962837,4.55827 0.120354,0.79207 0.361064,0.53557 0.120354,0.12427 h 0.120355 l 0.240709,-0.22953 0.240709,-0.27463 0.24071,0.85884 0.120354,0.0173 0.240709,0.0239 0.240709,-0.40023 0.120355,0.038 0.240709,0.56122 0.601773,1.40458 0.120355,0.84426 0.120354,1.02381 0.120355,0.31842 0.722127,0.14992 0.24071,0.45154 0.240709,-0.2114 h 0.120354 l 0.361064,-1.50719 0.120355,-0.16363 0.361063,-1.0614 0.24071,-0.25871 0.120354,-0.0487 0.361064,-0.57006 0.240709,-0.28039 0.601773,-0.96101 0.120355,-0.0261 0.120354,0.35866 0.120355,-0.41748 0.601773,-1.14101 0.120354,0.47719 0.240709,0.74121 0.361064,1.25688 h 0.120355 l 0.120354,-0.50505 0.120355,0.25075 0.240709,0.0915 0.240709,0.34142 0.240709,0.9787 0.120355,1.61951 0.120354,0.5453 0.481419,0.52406 0.240709,0.12384 0.240709,0.0858 0.120355,-0.11454 0.120354,-0.22864 0.120355,-0.53645 0.120354,-0.008 0.120355,-0.30471 0.120355,0.26181 0.722127,1.58901 0.361064,-0.49798 h 0.120354 l 0.842483,-1.98172 0.120354,-0.5904 0.481418,-0.89512 h 0.120355 l 0.120355,-0.13665 h 0.120354 l 0.120355,-0.67709 0.120354,0.0159 0.120355,0.10614 h 0.120355 l 0.120354,-0.68195 0.120355,-0.38431 0.240709,-0.62092 0.120354,0.19371 0.24071,0.11454 0.481418,-1.1158 0.120355,0.48294 0.361063,0.60146 h 0.120355 l 0.120354,0.49532 0.120355,-0.48692 0.361064,-0.48515 0.361064,-0.32417 0.120354,0.13002 0.361064,-0.61738 0.120354,0.33346 0.481419,-0.64038 h 0.120354 l 0.361064,0.0456 0.120355,0.008 0.120354,0.2229 h 0.120355 l 0.120354,-0.17115 0.120355,0.0814 h 0.120355 0.120354 l 0.240709,-0.5391 0.120355,-0.47012 h 0.120355 l 0.120354,-0.42278 0.481418,0.44269 0.120355,0.40864 0.120355,0.78853 h 0.120354 l 0.120355,-0.39714 0.240709,-0.0725 0.240709,-0.41306 0.240709,-0.0628 0.120355,1.09943 0.361064,-0.58775 0.120354,-0.40289 0.120355,0.0557 0.240709,-0.84425 0.240709,-0.35734 0.481418,-0.20078 0.120355,-0.59217 0.361064,0.36441 h 0.120354 l 0.120355,-1.06449 h 0.120355 l 0.120354,-0.27066 h 0.120355 l 0.120354,-0.9672 0.240709,-0.61473 0.120355,-0.14727 h 0.120355 l 0.120354,-0.48692 0.240709,-0.84602 0.361064,-0.25518 0.481418,-0.58156 0.361064,-1.98702 h 0.120355 l 0.120354,-0.32064 0.361064,-0.51522 0.240709,-0.16275 h 0.120355 l 0.120354,-0.007 0.120355,0.0336 0.120355,-0.31842 0.120354,-0.15125 0.120355,-0.2282 0.361063,0.11897 0.120355,0.11188 0.120355,0.29144 h 0.120354 l 0.361064,0.97251 0.842482,-0.7788 0.361064,-0.70317 0.120354,0.15788 0.24071,-0.97162 0.120354,-0.18221 h 0.120355 l 0.120354,0.0858 0.120355,-0.22865 0.240709,0.38387 0.120355,-0.038 h 0.120354 l 0.240709,-0.58864 0.120355,-0.80357 0.361064,0.65542 0.240709,-0.11366 0.240709,-0.2335 0.120355,-0.98667 h 0.120354 l 0.722128,0.17823 0.120354,0.28658 h 0.120355 l 0.481418,-1.10209 0.361064,-0.061 h 0.240709 l 0.361064,-1.18302 0.481418,-0.80047 0.481419,-0.49399 0.120354,0.60721 0.120355,1.83931 0.240709,0.49753 0.240709,-0.29276 0.120355,0.44136 h 0.120354 l 0.240709,-0.50416 0.24071,-0.22953 0.120354,-0.42102 0.120355,0.71114 0.120354,0.22599 0.240709,1.02513 0.120355,-0.0212 h 0.120355 l 0.240709,0.57359 0.361064,0.64038 0.240709,1.79377 0.361063,0.3109 h 0.120355 l 0.240709,-0.53866 0.240709,0.58775 0.24071,0.34805 0.240709,-0.15479 h 0.120354 l 0.361064,-1.04283 0.240709,-1.03221 0.120355,-0.56254 0.481416,0.0734 0.24071,0.19945 0.24071,-0.46657 0.36106,1.10076 0.12036,0.67841 0.12035,0.5988 h 0.12036 l 0.12035,0.26933 h 0.12036 l 0.48142,-1.01452 0.2407,-0.32593 0.12036,-0.34584 h 0.12035 0.12036 l 0.12035,-0.88981 0.36107,-0.46879 0.12035,-0.6532 0.12036,-0.52407 0.84248,-1.02778 0.36106,0.19281 0.60177,1.44395 0.12036,-0.0796 0.12035,0.22953 0.36107,-0.79429 0.24071,0.69964 0.12035,-0.64436 h 0.12036 l 0.36106,-0.97781 0.60177,0.39449 0.24071,-0.60102 0.12036,0.44225 0.12035,-0.26447 h 0.12036 l 0.2407,-0.28746 0.36107,0.23528 h 0.12035 l 0.24071,-0.71777 0.48142,-0.31223 h 0.12035 l 0.24071,-0.59085 0.36107,-0.0588 0.24071,0.096 0.24071,-0.10393 0.12035,1.37849 h 0.12036 l 0.2407,1.63191 0.24071,0.005 0.12036,0.37856 h 0.12035 0.12036 l 0.12035,-1.4435 0.24071,-0.5254 0.12036,0.45552 0.12035,0.6532 0.60177,-0.0818 0.12036,0.31709 h 0.12035 l 0.24071,-0.78057 0.12036,0.57935 0.12035,-0.16275 0.12036,-0.10304 0.84248,-0.19946 0.36106,-0.39758 0.12036,-0.0314 0.2407,1.95828 0.60178,1.12641 h 0.12035 l 0.12036,-8.8e-4 0.36106,1.07732 h 0.12036 l 0.36106,-1.04017 0.12035,-0.58952 0.24071,-1.44085 h 0.12036 l 0.24071,0.222 h 0.12035 l 0.12036,-1.00788 h 0.12035 l 0.12035,-0.3684 0.72213,-1.55937 h 0.12036 l 0.24071,-0.58245 0.24071,-0.71954 0.2407,0.24722 h 0.12036 l 0.36106,-0.47806 0.12036,0.092 0.48142,0.10924 h 0.12035 l 0.12035,-0.18663 0.12036,0.19724 0.36106,-0.11189 0.36107,-0.42013 0.60177,0.73015 h 0.12035 l 0.24071,0.26402 0.12036,-0.39271 0.12035,-0.17956 h 0.24071 l 0.12036,-0.45375 0.12035,0.35999 0.12036,0.80844 0.48141,0.41438 0.12036,-0.15346 0.24071,1.04548 h 0.12035 l 0.12036,-0.084 0.24071,0.2795 0.12035,0.36839 0.36106,0.94509 0.24071,0.45331 0.60178,-0.42324 0.12035,0.33125 0.36106,0.3737 0.36107,0.25916 0.36106,0.30603 0.24071,-0.13798 0.36107,-1.17992 0.12035,0.21095 0.48142,1.07821 h 0.12035 l 1.20355,-0.001 h 0.24071 l 0.12035,-0.95791 0.12036,-0.0199 h 0.12035 l 0.24071,-0.27774 0.24071,-0.19547 h 0.24071 l 0.36106,-0.74121 0.24071,-0.14992 0.12036,0.14594 0.36106,-0.33611 h 0.12035 l 0.24071,-0.37591 0.24071,-1.01983 0.12036,-0.6563 h 0.12035 l 0.24071,-0.54574 0.12036,-0.56608 0.36106,0.0239 0.48142,-0.48956 0.12035,-0.75272 h 0.24071 l 0.24071,-0.91943 0.48142,-0.23661 h 0.12035 l 0.12036,0.0531 h 0.12035 l 0.12036,-0.25076 h 0.12035 l 0.12036,0.72351 0.24071,0.007 0.48141,0.27862 h 0.24071 l 0.12036,-0.13046 0.36106,0.23218 0.48142,-0.70274 0.36106,-0.17424 0.24071,-0.32638 h 0.12036 0.12035 l 0.48142,-1.70709 0.24071,-0.60146 0.12035,-0.53601 0.12036,0.15081 0.12035,0.53026 0.24071,-0.38653 h 0.12036 l 0.36106,-0.291 0.60177,-0.19768 0.24071,0.0398 0.12036,0.0296 0.24071,-0.34363 0.12035,0.39758 0.48142,0.0464 0.24071,-0.54264 0.12035,-0.0142 h 0.12036 l 0.24071,-0.539992 0.24071,0.338767 0.12035,0.213165 0.12036,-0.463038 0.2407,-0.0858 h 0.12036 l 0.24071,0.211394 0.12035,-0.580231 0.12036,-0.03803 h 0.12035 0.12036 l 0.12035,-0.978259 0.60177,-0.679294 0.24071,-0.382987 0.24071,-0.07474 0.12036,0.0084 h 0.12035 l 0.60177,0.02698 0.48142,-0.587747 0.24071,0.382987 0.12036,0.23174 0.72212,-0.719102 0.12036,-0.699194 0.12035,-0.195921 h 0.12036 l 0.12035,0.05042 0.48142,-0.806221 0.24071,-0.608532 0.12035,-0.145944 0.72213,1.272353 h 0.12036 l 0.36106,-1.489942 0.24071,-0.520083 h 0.12035 l 0.12036,-0.273754 h 0.24071 l 0.36106,-1.31569 h 0.12036 l 0.12035,-0.229533 h 0.24071 l 0.12035,-0.477186 0.12036,0.07739 0.12035,0.02742 h 0.12036 l 0.12035,-0.117641 0.36107,0.616502 0.12035,-0.377683 0.24071,0.09818 h 0.12036 l 0.12035,0.129579 0.36106,0.398468 h 0.12036 l 0.12035,-0.303386 0.48142,2.045852 0.12036,0.764645 0.12035,0.866368 0.60177,2.474389 0.24071,0.161869 0.24071,-0.349381 h 0.12036 0.12035 l 0.36106,-0.873001 0.12036,0.490452 h 0.12035 0.12036 l 0.12035,0.03848 h 0.12036 l 0.12035,0.103929 0.12036,0.136213 0.24071,-0.09818 0.36106,-0.111885 0.24071,-0.01371 h 0.12035 l 0.36107,0.440482 0.12035,-0.306483 0.24071,0.337882 0.12036,-0.656742 h 0.12035 l 0.12035,0.115867 h 0.12036 l 0.24071,-0.145498 0.12035,-0.497976 h 0.12036 l 0.36106,-0.575804 0.36106,-0.8133 0.36107,-0.481167 0.12035,0.08535 0.24071,0.135773 0.12036,0.686812 0.12035,0.42102 h 0.12036 l 0.12035,-0.440475 h 0.12036 l 0.2407,0.481605 0.60178,0.480728 0.24071,-0.02167 0.24071,0.256944 0.2407,0.05882 0.12036,-0.13931 0.72213,-0.84337 0.12035,-0.255615 0.24071,1.404138 h 0.12036 l 0.12035,0.01593 0.48142,0.176452 0.24071,-0.388737 0.24071,-0.177342 0.24071,0.271986 h 0.12035 l 0.12035,-0.406869 0.36107,-0.382104 0.12035,-0.05971 0.12036,0.501513 0.24071,0.09951 0.12035,0.264023 0.36107,0.270657 h 0.12035 l 0.36106,-0.341857 0.12036,-0.403333 h 0.12035 l 0.24071,0.345393 0.48142,-1.026901 0.12035,-0.486032 h 0.12036 l 0.24071,0.872556 h 0.12035 l 0.60178,0.192378 0.24071,-0.333011 0.36106,0.947299 h 0.12035 l 0.36107,0.06235 0.12035,0.149925 0.60177,-0.152131 0.24071,-0.398468 0.12036,-0.327706 h 0.12035 l 0.12036,0.219357 0.12035,0.628433 h 0.12036 l 0.12035,-0.463035 0.36107,0.209188 h 0.12035 l 0.12035,0.580669 h 0.12036 l 0.24071,-1.525316 0.24071,-0.125604 h 0.12035 l 0.36107,-1.082627 0.12035,-0.270212 0.36106,-0.08314 0.36107,-0.493111 0.48142,1.252452 0.60177,1.34665 0.12035,0.292771 0.12036,0.474533 0.48142,1.865412 0.36106,0.370604 0.60177,1.087059 0.36107,0.7275 0.36106,1.164 0.24071,0.85708 h 0.12035 l 0.36107,-0.69389 0.48142,0.53556 0.48141,-0.84248 0.48142,-0.8363 0.12036,0.0345 0.60177,1.20912 0.24071,0.42987 0.12035,0.30471 0.24071,0.65674 0.12036,0.34893 0.24071,0.20167 0.84248,0.27994 1.08319,-0.23705 h 0.12036 l 0.2407,0.67532 0.12036,-0.25695 0.36106,-0.94464 h 0.12036 l 0.24071,-0.0469 0.48141,0.87787 0.24071,-0.71159 0.48142,-0.56254 0.12036,-0.36794 h 0.12035 l 0.12036,-0.0849 0.12035,0.19813 0.48142,-0.0655 0.12035,-0.1707 h 0.24071 l 0.12036,0.59748 0.48142,-0.19946 0.60177,-0.12736 h 0.12035 l 0.48142,-0.91016 0.36107,0.22644 0.36106,-0.45375 0.12035,-0.31931 h 0.24071 l 0.12036,0.13798 0.36106,-0.59791 0.24071,-0.77792 0.96284,0.10038 0.36106,0.48206 0.12036,0.0332 0.2407,1.30463 0.24071,-0.34805 h 0.12036 l 1.08319,-1.85833 h 0.12035 l 0.48142,-1.847718 0.24071,-0.879196 h 0.12036 l 0.12035,-0.582444 h 0.12036 l 0.36106,-0.513895 0.24071,-0.154345 0.12035,-0.765536 h 0.12036 0.12035 l 0.12036,-0.635066 h 0.12035 l 0.12036,-0.306483 h 0.2407 l 0.12036,-0.991081 h 0.12035 l 0.12036,-0.301173 h 0.12035 0.12036 l 0.12035,-1.576176 h 0.12036 l 0.24071,-0.549722 0.84248,-1.248471 0.36106,-0.08358 0.12036,-0.522743 0.24071,-0.171148 h 0.12035 l 0.48142,-1.098991 h 0.12035 l 0.12036,0.124713 0.48142,-0.438268 0.12035,0.209187 h 0.12036 l 0.12035,-0.215821 h 0.12035 l 0.24071,-0.16496 h 0.12036 l 0.48142,-1.095455 0.12035,-0.634628 h 0.12036 l 0.2407,0.275084 0.36107,-1.146755 0.48142,-2.050717 h 0.12035 0.12036 l 0.24071,-1.047247 0.2407,0.08049 0.12036,-1.188331 0.84248,-1.333384 0.36106,-0.724405 0.24071,0.398029 0.72213,-0.17602 0.36107,-0.808873 0.12035,0.07961 0.36106,0.417923 0.48142,-1.768555 0.24071,0.146828 h 0.12036 l 0.36106,-0.528047 h 0.12035 l 0.12036,-0.01858 h 0.24071 l 0.24071,0.134445 0.60177,-0.151693 0.24071,-0.677965 h 0.12035 l 0.12036,-1.066269 0.24071,0.215821 0.24071,-0.342303 0.12035,0.496648 h 0.12036 l 0.12035,-0.406431 0.36106,0.587755 0.24071,1.111813 0.12036,0.570061 h 0.12035 l 0.12036,0.224661 0.12035,0.134889 0.36106,-0.161862 0.60178,0.507256 0.60177,3.202776 0.12036,0.233953 h 0.12035 l 0.48142,-0.200786 0.12035,0.320189 0.12036,-0.08535 0.84248,-0.242355 0.12035,-0.243239 h 0.24071 l 0.12036,0.112337 0.24071,1.011866 0.48142,0.840272 0.2407,0.834084 0.24071,-0.226429 0.24071,0.05749 h 0.12036 l 0.48142,0.246336 0.48141,1.72345 0.12036,0.97693 h 0.12035 l 0.12036,1.401048 0.24071,0.08226 0.12035,0.788973 0.60177,-0.130908 0.12036,0.76642 0.24071,1.282967 0.24071,0.949512 h 0.12035 l 0.12036,-0.282155 h 0.12035 l 0.24071,0.168495 0.24071,-0.0062 0.48142,0.331688 0.24071,1.153382 0.24071,0.249434 0.36106,0.48338 0.12035,-0.822585 0.48142,2.339054 0.36107,1.212213 0.24071,0.362641 h 0.12035 l 0.12035,0.354247 h 0.12036 l 0.36106,-0.316214 0.12036,-0.05218 0.12035,0.730601 h 0.12036 0.12035 l 0.12036,-0.908828 0.36106,-0.271986 0.12035,-0.171593 h 0.12036 l 0.24071,0.567854 0.12035,0.127366 0.12036,0.216705 h 0.12035 l 0.24071,-0.03406 0.24071,-0.195475 0.36106,0.22732 0.24071,-0.156997 0.12036,0.252079 h 0.12035 l 0.12036,-0.473204 0.72212,0.486471 0.12036,1.062288 0.36106,-0.34407 0.12036,-0.03185 0.12035,0.759341 h 0.12036 l 0.60177,0.35115 0.96284,0.71512 0.12035,-0.763768 0.12036,0.03008 0.36106,-0.101723 0.24071,-0.858405 0.36106,0.10835 h 0.12036 0.12035 l 0.12036,-0.340535 0.2407,-0.287898 h 0.12036 l 0.36106,-1.122435 0.60178,-0.696542 h 0.12035 l 0.24071,0.453749 0.12035,-0.656742 0.24071,-0.444463 0.84249,-0.737228 h 0.12035 l 0.12035,0.245891 0.36107,0.704505 h 0.12035 l 0.36107,-1.015853 0.12035,-0.01547 h 0.12036 l 0.12035,0.367952 0.24071,0.726174 h 0.12035 l 0.24071,-0.104374 0.24071,1.742466 0.24071,-0.132231 h 0.12036 l 0.36106,-0.04201 0.24071,-0.16496 0.12035,0.402449 h 0.12036 l 0.48142,-0.138426 0.24071,-0.02875 0.48141,-0.927837 0.24071,-0.311348 0.24071,1.229454 0.12036,0.639493 0.48142,0.357337 0.36106,-0.89865 0.12035,-0.06368 0.24071,-0.339644 0.12036,0.03007 0.24071,0.798258 h 0.12035 0.12036 l 0.24071,-0.653644 0.12035,0.03848 0.12035,0.32992 0.72213,1.46915 h 0.12036 l 0.12035,0.817281 0.12036,0.992413 h 0.12035 l 0.36106,1.35549 0.24071,-0.85045 0.36107,0.21715 0.48142,-0.0991 0.48141,1.05742 0.12036,8.8e-4 h 0.12035 l 0.12036,0.5338 0.48142,0.11986 0.12035,0.36573 0.12035,-0.43561 0.12036,0.14417 0.12035,0.87566 0.24071,-0.28216 0.24071,0.24766 h 0.12036 l 0.36106,0.17027 h 0.12036 l 0.2407,-0.0128 h 0.24071 l 0.24071,-0.86327 0.12036,-0.81816 0.48142,-0.25872 0.48141,-0.27508 0.24071,0.37326 0.12036,0.28304 0.48142,-0.40112 0.24071,1.19231 h 0.12035 l 0.12035,-0.46525 0.36107,-0.0955 0.36106,-0.33655 0.24071,-0.0646 0.72213,-0.68725 0.12035,-0.91635 h 0.12036 l 0.24071,0.39007 h 0.12035 l 0.36107,-0.30074 0.36106,0.38123 0.12035,0.0385 0.36107,1.47579 0.12035,0.0429 0.12036,0.10747 0.12035,0.36618 0.36106,0.30604 0.24071,0.96189 0.36107,0.4993 0.12035,0.11189 0.24071,-0.61473 0.36107,0.63596 0.48141,-0.9358 0.12036,0.48249 0.12035,-0.002 0.12036,0.13091 h 0.12035 l 0.24071,0.009 h 0.12036 l 0.12035,-1.06538 h 0.12035 l 0.72213,-0.88715 0.24071,0.18575 0.12036,0.20874 0.12035,0.12516 h 0.12036 l 0.12035,-0.21538 h 0.12035 l 0.12036,-0.31798 0.24071,-0.27066 0.24071,0.15656 h 0.12035 l 0.12036,0.31267 0.24071,0.50461 h 0.12035 l 0.12035,-1.24715 h 0.24071 l 0.48142,0.13975"
                 fill="none"
                 id="path1429" />
            </g>
            <g
               id="g1435">
              <path
                 style="fill:none"
                 stroke="#bbbbbb"
                 stroke-width="2px"
                 d="m 24.311626,146.60587 0.361063,-2.45448 0.120355,3.13555 0.722128,-24.23088 h 0.120354 l 0.361064,-13.49108 h 0.120354 l 0.361064,-8.7364 h 0.120355 l 0.120354,-7.413316 h 0.24071 0.120354 L 27.440845,77.81757 h 0.120354 l 0.722128,-6.991235 0.361064,-1.61421 0.120354,1.102858 h 0.120355 0.120354 0.120355 l 0.842482,-7.864621 H 30.088646 30.209 l 0.240709,-3.55151 h 0.120355 l 0.240709,-1.309475 h 0.361064 l 0.361064,-2.323513 h 0.120354 0.120355 l 0.120354,-0.537427 0.24071,2.58363 h 0.120354 l 0.120355,2.082102 0.120354,2.560146 0.24071,1.541734 0.120354,1.354573 0.722128,0.468278 0.240709,-0.551389 h 0.120354 l 0.24071,3.456057 h 0.120354 l 0.240709,-0.752647 0.481419,4.918418 0.120354,0.959527 0.601773,2.991908 0.481418,2.24906 0.120355,-0.293897 0.361064,1.109087 0.361064,-1.107015 0.120354,0.276919 0.240709,0.361285 0.601773,0.922229 0.240709,0.03861 0.601773,1.968167 0.481419,-0.469101 h 0.120354 l 0.240709,0.136043 0.24071,-0.504589 0.120354,0.997485 h 0.120355 l 0.481418,-0.186338 0.120355,-0.0031 0.722127,-0.484379 0.120355,-0.106595 h 0.240709 l 0.120354,-0.387016 0.361064,0.999665 0.842482,-0.117358 0.240709,0.198256 0.120355,0.154635 0.240709,-0.217198 0.240709,0.254238 0.240709,-0.475754 0.481419,1.419807 0.120354,0.875397 0.120355,1.124689 0.361064,-0.578436 h 0.120354 0.120355 l 0.120354,-1.059622 0.24071,0.687223 0.120354,-0.05346 0.361064,0.895978 h 0.120355 l 0.120354,-0.02615 0.361064,0.407517 h 0.120354 0.120355 l 0.120355,-0.09978 0.361063,0.234966 0.481419,-1.240508 0.120354,0.817551 0.240709,0.650587 h 0.120355 l 0.120355,-0.332376 h 0.120354 l 0.240709,0.336762 h 0.24071 l 0.240709,-0.928721 0.240709,-1.063172 0.240709,0.737234 h 0.120355 l 0.240709,-0.291002 h 0.120354 0.120355 l 0.120355,-1.223267 h 0.120354 l 0.240709,0.708487 h 0.120355 l 0.481418,5.705913 0.722128,1.079968 0.240709,0.626672 0.120354,2.100242 h 0.120355 l 0.240709,0.549722 h 0.120355 l 0.240709,0.636396 h 0.120355 0.120354 l 0.120355,0.205206 0.601773,-0.302941 0.120354,-0.03804 0.120355,0.381219 0.361064,-0.543081 0.120354,-0.233947 h 0.120355 l 0.120354,-0.205206 0.240709,0.685927 0.962837,1.312161 h 0.120355 l 0.361063,-0.57139 0.120355,-0.334785 h 0.120355 l 0.240709,-0.50372 h 0.240709 l 0.240709,-1.199823 0.120355,0.310458 h 0.240709 l 0.240709,-0.712462 0.120355,-0.486923 h 0.240709 l 0.601773,-1.721236 h 0.120354 0.120355 0.120354 l 0.722128,-0.818604 0.240709,-0.07783 h 0.240709 l 0.120355,-1.186557 0.361064,1.837987 h 0.120354 l 0.361064,-0.549715 0.240709,1.413876 h 0.120355 l 0.361063,-0.4166 0.24071,0.09995 0.601773,0.262255 0.120354,0.174245 0.120355,1.070244 0.120354,0.556349 0.601773,1.870722 h 0.120355 l 0.240709,-0.31533 0.361064,0.221125 0.120354,-0.488684 h 0.120355 l 0.120354,-0.157881 h 0.24071 l 0.240709,-0.636841 0.240709,0.120293 0.120354,-0.02609 h 0.120355 l 0.481418,-0.515218 0.24071,-1.291369 h 0.240709 l 0.120354,-0.988429 h 0.120355 0.120354 l 0.120355,-0.81772 h 0.120355 0.120354 l 0.722128,-2.592469 0.361063,-0.417485 h 0.120355 L 70.64814,86.27988 h 0.120355 l 0.481418,-0.06148 h 0.120355 0.120354 l 0.120355,-0.517432 h 0.120354 l 0.120355,-0.136651 h 0.120355 0.120354 l 0.120355,-0.501074 0.120354,1.089706 0.240709,0.416155 h 0.120355 l 0.240709,-0.642145 0.481419,0.368836 0.120354,-0.656296 0.361064,-1.167985 h 0.120354 0.120355 l 0.120355,0.100831 0.361063,-0.547063 0.361064,-0.487355 h 0.120355 l 0.361063,-0.59571 h 0.120355 l 0.481418,0.323724 h 0.120355 l 0.361064,-1.075993 h 0.120354 l 0.120355,-0.197244 h 0.120354 0.120355 l 0.120355,-1.00258 h 0.120354 0.120355 l 0.240709,-1.449695 h 0.120355 l 0.120354,-0.228642 0.120355,0.543965 0.481418,-0.593497 h 0.120355 l 0.120354,-1.080421 h 0.120355 0.120354 l 0.24071,-0.875653 h 0.240709 l 0.240709,-0.296752 h 0.120354 l 0.361064,-0.856637 h 0.120355 l 0.120354,0.05573 h 0.24071 l 0.240709,-0.868142 0.481418,0.145943 h 0.120355 l 0.361063,-1.280754 h 0.120355 l 0.120355,-0.585096 h 0.120354 0.120355 l 0.120354,-0.503726 h 0.120355 l 0.240709,0.105697 h 0.120355 0.120354 l 0.120355,-0.846022 0.240709,0.7819 0.361064,-0.80313 0.481418,-0.923417 0.361064,-1.788016 h 0.120354 0.120355 l 0.361064,-0.512128 0.240709,-0.63595 h 0.120354 l 0.120355,-0.164521 h 0.120355 0.120354 l 0.120355,-0.870788 h 0.120354 l 0.361064,0.247659 0.120355,-0.672222 h 0.120354 0.120355 l 0.361064,0.18177 0.842482,1.14056 0.361063,0.368391 0.120355,-0.547947 0.240709,0.01018 h 0.120355 l 0.120354,0.150364 h 0.120355 0.120354 l 0.24071,-0.215376 0.120354,-0.422349 0.120355,-0.459937 0.240709,-0.272871 h 0.120355 l 0.361063,-0.965431 0.240709,-0.257835 0.24071,0.198127 0.120354,0.23749 h 0.120355 l 0.722127,-1.263952 h 0.120355 l 0.120354,-0.880957 0.481419,-1.330293 0.361064,-0.03626 0.240709,-0.273303 0.361063,-1.514714 0.481419,-1.592534 0.481418,-1.274128 0.120355,-0.03892 h 0.120354 l 0.240709,-0.747835 h 0.24071 l 0.120354,-0.372379 h 0.120355 l 0.240709,-0.509476 0.240709,0.08713 0.120355,0.0858 0.120354,0.915892 h 0.120355 l 0.240709,0.139755 h 0.120355 l 0.120354,-0.339205 0.240709,0.804453 0.361064,0.732369 0.240709,0.248981 0.361064,1.557161 h 0.120355 l 0.240709,-0.08092 h 0.240709 0.240709 l 0.240709,-0.426338 h 0.120355 l 0.361064,-0.136206 0.240709,-0.992849 h 0.120356 l 0.48142,-0.773937 0.24071,-0.683283 h 0.24071 l 0.36106,-1.193635 h 0.12035 0.12036 l 0.12035,-1.068037 h 0.12036 l 0.12035,0.222016 0.48142,0.253408 0.24071,-0.183969 h 0.12035 l 0.12036,-0.996399 h 0.12035 l 0.12036,-0.17822 0.36106,0.287905 0.12036,-0.639054 h 0.12035 l 0.84248,-1.504093 0.36107,-1.104748 0.60177,-0.527601 h 0.12035 0.12036 l 0.36106,-1.069806 0.24071,-0.03052 0.12036,-0.02122 h 0.12035 l 0.36106,0.448877 0.60178,1.395743 0.24071,0.467016 0.12035,0.853539 h 0.12036 0.12035 l 0.24071,0.295868 0.36106,-0.171148 h 0.12036 l 0.24071,-0.707157 0.48141,1.563356 h 0.12036 l 0.24071,-0.898213 0.36106,0.834523 0.24071,-0.07297 h 0.24071 l 0.12036,0.21848 h 0.12035 l 0.24071,1.079968 0.24071,-1.031773 h 0.12035 0.12036 l 0.12035,0.03008 h 0.12036 l 0.24071,0.21493 h 0.12035 l 0.12035,0.782778 0.60178,0.327706 0.12035,-0.468784 h 0.12036 0.24071 0.12035 l 0.12036,-1.313038 h 0.12035 l 0.84248,-1.235649 0.36107,0.59704 h 0.12035 l 0.24071,-0.904839 0.60177,1.05697 h 0.12036 l 0.12035,0.02521 0.36107,0.843376 0.12035,0.407308 0.36106,1.032205 h 0.12036 l 0.24071,-0.10835 0.12035,-0.08667 0.24071,-0.03671 h 0.12036 l 0.12035,0.976937 h 0.12035 l 0.12036,0.392273 0.72213,1.433331 0.12035,-0.486032 h 0.24071 l 0.24071,-0.325061 h 0.24071 0.12035 l 0.36107,0.374147 h 0.12035 l 0.48142,0.311349 h 0.12035 l 0.12036,-0.02964 h 0.12035 l 0.36107,0.195036 0.36106,1.044149 0.60177,1.676577 h 0.12036 l 0.24071,1.872922 h 0.12035 0.12036 l 0.24071,0.791631 h 0.12035 l 0.12036,0.318859 h 0.12035 l 0.48142,-0.116305 h 0.12035 l 0.24071,-0.53026 h 0.12036 l 0.12035,-1.037968 0.24071,-0.107458 h 0.12036 l 0.36106,-0.08138 0.24071,-0.74519 0.60177,-0.520084 h 0.12036 l 0.36106,-0.04201 h 0.36106 l 0.36107,-0.333901 0.24071,0.178233 0.36106,-0.195482 h 0.12035 l 0.48142,0.591736 h 0.12036 l 1.20354,3.074966 0.24071,-1.003916 0.12036,0.05351 h 0.12035 l 0.12036,0.409967 0.24071,0.72618 0.2407,0.485149 h 0.24071 l 0.36107,-0.480283 0.24071,1.095448 h 0.12035 l 0.36106,0.334785 h 0.12036 0.24071 l 0.24071,1.075994 h 0.12035 l 0.12036,1.13614 h 0.24071 0.12035 l 0.36106,-0.960565 0.48142,0.05483 0.12036,-0.07208 0.24071,0.707158 0.24071,-0.597034 0.48141,-1.010988 0.12036,0.582005 h 0.12035 0.12036 0.12035 l 0.12036,-0.683275 h 0.12035 l 0.24071,0.491781 0.48142,-0.662052 h 0.24071 l 0.12035,-0.799587 h 0.36107 l 0.48141,-0.660723 0.36107,0.258719 0.24071,0.230856 h 0.12035 0.12036 l 0.48142,-0.651438 h 0.2407 0.12036 l 0.12035,-0.444018 h 0.12036 l 0.24071,-0.06678 0.12035,-0.136219 0.36107,0.06458 0.60177,0.300727 0.24071,0.99152 h 0.12035 l 0.24071,-0.533351 h 0.12036 l 0.48141,1.890616 0.24071,1.448373 h 0.12036 l 0.12035,0.121616 h 0.24071 l 0.24071,-1.219285 h 0.12036 0.12035 l 0.24071,-0.792954 h 0.12035 0.24071 l 0.12036,-1.278541 h 0.12035 0.12036 l 0.12035,-0.570061 h 0.12036 l 0.60177,-1.02248 0.24071,-0.557239 0.24071,0.645681 h 0.12035 l 0.12036,-0.03448 0.60177,-0.61252 0.48142,-1.804388 h 0.24071 l 0.12035,-0.671324 0.72213,0.78101 0.12035,0.04953 h 0.12036 0.12035 l 0.12036,0.574488 0.48142,-0.229979 0.2407,-0.505926 h 0.12036 l 0.72213,-0.255189 h 0.12035 l 0.36107,0.02521 h 0.2407 0.12036 l 0.12035,-1.05388 h 0.24071 l 0.36107,-0.943317 h 0.12035 l 0.12036,-0.477638 0.2407,-0.640377 h 0.12036 0.12035 l 0.12036,-0.09906 h 0.12035 0.12036 l 0.36106,1.030451 h 0.12036 l 0.24071,-0.703176 h 0.12035 l 0.12035,-0.08713 0.36107,0.446231 h 0.12035 0.12036 l 0.48142,-1.102966 h 0.12035 l 0.12035,0.804453 0.60178,0.480283 0.24071,-0.552813 0.24071,0.189719 h 0.12035 0.12036 l 0.36106,1.322782 h 0.12035 l 0.12036,0.673093 h 0.12035 l 0.12036,-0.03228 h 0.12035 0.12036 0.12035 l 0.24071,-0.640809 0.36106,-0.40334 h 0.24071 0.12036 l 0.36106,-0.932709 0.12036,-0.56033 h 0.24071 l 0.12035,0.788541 0.12035,0.178665 h 0.12036 0.12035 l 0.24071,-0.707603 0.12036,0.02078 h 0.12035 l 0.36107,-0.89909 0.36106,-0.127811 0.36106,0.1026 h 0.12036 l 0.24071,0.300295 h 0.12035 l 0.12036,-0.162308 0.12035,1.115788 h 0.12036 0.12035 l 0.24071,-1.199816 0.60177,0.199449 h 0.24071 l 0.24071,-0.853539 0.24071,0.487801 h 0.12035 l 0.72213,-1.925559 h 0.12036 l 0.24071,-0.33301 h 0.12035 0.12035 l 0.48142,-1.694702 0.24071,-0.614734 0.24071,-0.125152 0.24071,0.601467 h 0.12035 0.12036 l 0.36106,0.596149 0.12036,0.316207 h 0.12035 l 0.24071,-0.01504 h 0.12036 l 0.36106,0.708035 h 0.12035 l 0.36107,0.344077 h 0.12035 l 0.12036,-0.532028 0.24071,1.359479 0.48141,-0.108795 h 0.12036 l 0.12035,-0.445354 h 0.24071 l 0.12036,-0.151686 0.60177,-0.248104 h 0.24071 l 0.36106,-1.018061 0.12036,0.944209 0.36106,0.875214 h 0.12036 l 0.60177,-0.554135 0.24071,-0.322402 0.12035,-0.684605 h 0.12036 l 0.12035,0.573597 h 0.12036 l 0.12035,0.705835 h 0.12036 l 0.36106,0.254731 0.12035,1.314805 h 0.12036 0.12035 l 0.24071,-0.377237 0.24071,0.653644 0.12036,0.71512 0.36106,0.804898 0.12035,0.192378 0.36107,0.264016 0.36106,1.372746 0.48142,0.11588 0.60177,-0.626678 h 0.12036 l 0.12035,-0.143291 0.48142,-1.106503 0.36106,0.416594 0.60178,-0.321957 0.36106,2.488992 0.36107,-0.580237 0.2407,-0.198127 h 0.12036 l 0.36106,0.130902 0.48142,-0.196805 0.48142,-0.523174 0.48142,-0.499745 h 0.12035 l 0.60178,0.728387 0.2407,-0.844253 h 0.12036 l 0.24071,-0.478961 h 0.12035 l 0.24071,0.562989 0.84248,0.521852 1.0832,0.363094 0.12035,-0.302509 h 0.24071 l 0.12035,-0.503726 0.36107,0.505494 h 0.12035 l 0.24071,-0.764206 0.48142,-0.682392 0.24071,-0.445786 0.48142,0.357776 h 0.12035 l 0.12036,0.131793 h 0.12035 l 0.12036,-0.896877 0.48141,0.925179 0.12036,1.018951 0.24071,0.0084 h 0.12035 l 0.48142,0.234392 0.60177,-0.125152 h 0.12036 l 0.48142,0.403772 0.36106,-0.765084 0.36106,-0.146395 0.12036,0.472765 h 0.24071 l 0.12035,-1.333822 h 0.36107 l 0.2407,-0.46348 0.96284,-0.8845 0.36107,1.054771 h 0.12035 l 0.24071,0.397145 0.24071,0.887145 0.12035,1.17196 1.08319,3.598153 h 0.12036 l 0.48142,-1.148962 0.24071,-0.848235 h 0.12035 0.12036 l 0.12035,0.122062 h 0.36106 l 0.24071,-1.203812 h 0.12036 l 0.12035,-0.490891 h 0.12036 l 0.12035,0.297191 h 0.12036 l 0.12035,1.116679 h 0.24071 l 0.12035,-0.456408 h 0.12036 0.12035 l 0.12036,-0.482051 h 0.12035 l 0.12036,1.436435 h 0.12035 l 0.24071,0.855307 0.84248,0.29321 0.36107,0.03627 0.12035,-1.166656 h 0.24071 l 0.12035,-0.53601 0.48142,0.02964 0.12036,0.78101 h 0.12035 l 0.48142,-0.120739 0.12036,-0.307799 h 0.12035 l 0.12035,0.182202 0.12036,0.907943 h 0.24071 l 0.12035,-0.313562 0.48142,0.841163 0.12036,-1.273682 h 0.12035 l 0.24071,-0.643022 0.36106,0.232178 0.48142,-1.441294 0.12036,-0.318866 h 0.12035 l 0.24071,-0.73855 h 0.24071 l 0.12035,-0.748739 0.84249,0.01371 h 0.36106 l 0.24071,-0.106581 0.72213,-0.111885 h 0.36106 0.12035 l 0.36107,-1.046362 0.48142,-1.123319 0.24071,-0.585096 0.12035,-0.351149 h 0.36106 0.12036 l 0.12035,-1.339127 h 0.24071 l 0.24071,0.3989 0.60177,0.256512 0.24071,0.04644 0.12036,0.586418 h 0.12035 l 0.24071,0.144169 0.24071,0.61252 h 0.12036 l 0.12035,0.420143 h 0.12035 l 0.36107,-0.173361 h 0.24071 l 0.12035,-0.206981 h 0.12036 0.12035 l 0.12036,-0.942872 h 0.36106 l 0.60177,-1.670827 0.60178,0.916351 h 0.12035 l 0.12035,0.339637 0.48142,0.11499 0.12036,-0.134006 h 0.12035 l 0.84248,0.926082 0.12036,0.809312 0.24071,1.207347 h 0.12035 l 0.24071,-0.147718 0.48142,-0.429428 0.24071,1.184795 0.24071,-0.630215 h 0.24071 l 0.12035,-0.512998 0.48142,-0.813752 0.48142,-0.611184 h 0.12035 0.12036 l 0.12035,-1.422723 h 0.24071 l 0.12036,0.760239 0.60177,-0.393609 0.12035,-0.387415 0.24071,0.296314 h 0.24071 l 0.12036,-0.538668 h 0.12035 0.12036 l 0.2407,-0.416148 0.24071,2.395664 0.48142,1.447921 0.24071,-0.756689 0.24071,0.100832 0.36106,-0.445786 h 0.12036 l 0.48142,-0.169826 0.36106,-0.635505 0.24071,-0.683727 0.12035,-0.245891 h 0.12036 0.12035 l 0.36107,-0.608971 h 0.12035 l 0.12036,-0.770847 h 0.12035 l 0.12036,0.439159 h 0.12035 l 0.36106,1.098985 h 0.12036 l 0.12035,0.856198 h 0.24071 l 0.12036,0.693013 h 0.12035 l 0.12036,0.329029 0.24071,0.218034 h 0.2407 l 0.36107,1.106071 0.24071,-0.08537 h 0.12035 l 0.12036,-0.246768 h 0.12035 l 0.72213,-0.52142 h 0.12035 l 0.36107,-0.547063 0.12035,-0.241909 h 0.12036 l 0.12035,0.493104 0.60177,1.162242 0.96284,-0.912802 h 0.12036 l 0.12035,-0.94553 0.36106,-0.270657 0.24071,-0.585987 0.36107,0.691677 0.12035,0.04378 h 0.12036 0.12035 l 0.24071,1.093248 h 0.12035 l 0.36107,-0.521865 0.60177,0.724851 0.12036,0.30869 h 0.2407 l 0.12036,-0.136651 h 0.24071 l 0.84248,-0.566525 h 0.12035 0.12036 l 0.36106,0.533351 h 0.12036 l 0.36106,-1.266597 h 0.12036 l 0.12035,0.238819 h 0.12036 l 0.2407,0.710248 h 0.12036 l 0.24071,1.716377 0.24071,-0.116312 h 0.24071 0.12035 l 0.36106,-1.072019 0.24071,0.812416 h 0.12036 l 0.12035,0.228197 0.48142,0.155236 0.24071,0.107904 0.48142,1.212651 0.24071,-0.784114 h 0.24071 l 0.12035,-1.220601 0.48142,0.289228 0.36106,-1.139676 h 0.12036 l 0.24071,-0.186628 h 0.12035 l 0.24071,0.173361 h 0.12036 l 0.12035,0.81108 0.24071,0.814183 h 0.12035 0.12036 l 0.72213,-1.533285 h 0.12035 0.12036 l 0.12035,-0.895554 h 0.12035 l 0.36107,1.195849 h 0.24071 l 0.36106,-0.998599 0.48142,0.141955 0.48142,-1.577945 h 0.12035 l 0.12036,-1.054325 h 0.12035 l 0.48142,-0.635073 0.12035,-4.45e-4 h 0.12036 l 0.12035,0.820378 h 0.12036 l 0.24071,0.138419 0.24071,-1.055202 h 0.12035 l 0.36107,0.08358 h 0.12035 l 0.24071,0.59704 0.24071,0.663375 0.24071,0.911034 h 0.12035 l 0.48142,0.505494 0.48142,0.171148 0.24071,-0.531582 h 0.12035 l 0.48142,0.361757 0.24071,-0.520974 0.12035,0.116312 h 0.12036 l 0.36106,-0.369275 0.36107,-0.138865 h 0.24071 l 0.72212,-2.431052 h 0.12036 0.12035 l 0.24071,0.455962 h 0.12036 l 0.36106,-0.384755 0.36106,-0.550154 h 0.12036 l 0.36106,-0.757134 0.12036,0.934031 h 0.12035 0.12036 l 0.36106,-1.200275 0.24071,-0.213162 0.36106,-0.979137 h 0.12036 l 0.24071,0.793831 0.36106,0.280833 0.48142,0.01105 0.12035,-0.276838 h 0.12036 0.12035 0.12036 l 0.24071,-0.44005 h 0.12035 l 0.12035,-0.572261 h 0.12036 l 0.72213,-1.29668 h 0.24071 0.12035 l 0.12036,-0.945976 h 0.12035 0.12035 0.12036 l 0.12035,-0.387846 h 0.24071 l 0.24071,-1.159584 h 0.12036 0.12035 l 0.24071,-1.574409 h 0.12035 0.12036 l 0.24071,-0.459943 0.36106,-0.931373"
                 fill="none"
                 id="path1433" />
            </g>
          </g>
        </g>
      </g>
    </g>
  </g>
  <g
     transform="translate(41,176)"
     clip-path="url(#clip_1)"
     id="g1510"
     style="fill:#000000">
    <clipPath
       id="clip_1">
      <rect
         width="288"
         height="23"
         id="rect1447"
         x="0"
         y="0" />
    </clipPath>
    <g
       id="g1508"
       style="fill:#000000">
      <g
         id="g1476"
         style="fill:#000000">
        <line
           x1="0"
           y1="0"
           x2="0"
           y2="5"
           style="visibility:inherit;fill:#000000"
           fill="#000000"
           stroke="#cccccc"
           stroke-width="1px"
           id="line1450" />
        <line
           x1="24.070917"
           y1="0"
           x2="24.070917"
           y2="5"
           style="visibility:inherit;fill:#000000"
           fill="#000000"
           stroke="#cccccc"
           stroke-width="1px"
           id="line1452" />
        <line
           x1="48.141834"
           y1="0"
           x2="48.141834"
           y2="5"
           style="visibility:inherit;fill:#000000"
           fill="#000000"
           stroke="#cccccc"
           stroke-width="1px"
           id="line1454" />
        <line
           x1="72.212753"
           y1="0"
           x2="72.212753"
           y2="5"
           style="visibility:inherit;fill:#000000"
           fill="#000000"
           stroke="#cccccc"
           stroke-width="1px"
           id="line1456" />
        <line
           x1="96.283669"
           y1="0"
           x2="96.283669"
           y2="5"
           style="visibility:inherit;fill:#000000"
           fill="#000000"
           stroke="#cccccc"
           stroke-width="1px"
           id="line1458" />
        <line
           x1="120.35458"
           y1="0"
           x2="120.35458"
           y2="5"
           style="visibility:inherit;fill:#000000"
           fill="#000000"
           stroke="#cccccc"
           stroke-width="1px"
           id="line1460" />
        <line
           x1="144.42551"
           y1="0"
           x2="144.42551"
           y2="5"
           style="visibility:inherit;fill:#000000"
           fill="#000000"
           stroke="#cccccc"
           stroke-width="1px"
           id="line1462" />
        <line
           x1="168.49641"
           y1="0"
           x2="168.49641"
           y2="5"
           style="visibility:inherit;fill:#000000"
           fill="#000000"
           stroke="#cccccc"
           stroke-width="1px"
           id="line1464" />
        <line
           x1="192.56734"
           y1="0"
           x2="192.56734"
           y2="5"
           style="visibility:inherit;fill:#000000"
           fill="#000000"
           stroke="#cccccc"
           stroke-width="1px"
           id="line1466" />
        <line
           x1="216.63824"
           y1="0"
           x2="216.63824"
           y2="5"
           style="visibility:inherit;fill:#000000"
           fill="#000000"
           stroke="#cccccc"
           stroke-width="1px"
           id="line1468" />
        <line
           x1="240.70917"
           y1="0"
           x2="240.70917"
           y2="5"
           style="visibility:inherit;fill:#000000"
           fill="#000000"
           stroke="#cccccc"
           stroke-width="1px"
           id="line1470" />
        <line
           x1="264.78009"
           y1="0"
           x2="264.78009"
           y2="5"
           style="visibility:inherit;fill:#000000"
           fill="#000000"
           stroke="#cccccc"
           stroke-width="1px"
           id="line1472" />
        <line
           x1="288.85101"
           y1="0"
           x2="288.85101"
           y2="5"
           style="visibility:inherit;fill:#000000"
           fill="#000000"
           stroke="#cccccc"
           stroke-width="1px"
           id="line1474" />
      </g>
      <g
         transform="translate(0,8)"
         id="g1504"
         style="fill:#000000">
        <text
           style="font-weight:200;font-size:12px;font-family:Roboto, sans-serif;text-anchor:middle;visibility:hidden;fill:#000000"
           x="0"
           y="0"
           fill="#ffffff"
           stroke="none"
           stroke-width="1px"
           id="text1478" />
        <text
           style="font-weight:200;font-size:12px;font-family:Roboto, sans-serif;text-anchor:middle;visibility:inherit;fill:#000000"
           x="24.070917"
           y="0"
           dx="0em"
           dy="0.94999999em"
           fill="#ffffff"
           stroke="none"
           stroke-width="1px"
           id="text1480">0</text>
        <text
           style="font-weight:200;font-size:12px;font-family:Roboto, sans-serif;text-anchor:middle;visibility:hidden;fill:#000000"
           x="48.141834"
           y="0"
           fill="#ffffff"
           stroke="none"
           stroke-width="1px"
           id="text1482" />
        <text
           style="font-weight:200;font-size:12px;font-family:Roboto, sans-serif;text-anchor:middle;visibility:inherit;fill:#000000"
           x="72.212753"
           y="0"
           fill="#ffffff"
           stroke="none"
           stroke-width="1px"
           id="text1484"
           dy="0.94999999em"
           dx="0em">200k</text>
        <text
           style="font-weight:200;font-size:12px;font-family:Roboto, sans-serif;text-anchor:middle;visibility:hidden;fill:#000000"
           x="96.283669"
           y="0"
           fill="#ffffff"
           stroke="none"
           stroke-width="1px"
           id="text1486" />
        <text
           style="font-weight:200;font-size:12px;font-family:Roboto, sans-serif;text-anchor:middle;visibility:inherit;fill:#000000"
           x="120.35458"
           y="0"
           fill="#ffffff"
           stroke="none"
           stroke-width="1px"
           id="text1488"
           dy="0.94999999em"
           dx="0em">400k</text>
        <text
           style="font-weight:200;font-size:12px;font-family:Roboto, sans-serif;text-anchor:middle;visibility:hidden;fill:#000000"
           x="144.42551"
           y="0"
           fill="#ffffff"
           stroke="none"
           stroke-width="1px"
           id="text1490" />
        <text
           style="font-weight:200;font-size:12px;font-family:Roboto, sans-serif;text-anchor:middle;visibility:inherit;fill:#000000"
           x="168.49641"
           y="0"
           fill="#ffffff"
           stroke="none"
           stroke-width="1px"
           id="text1492"
           dy="0.94999999em"
           dx="0em">600k</text>
        <text
           style="font-weight:200;font-size:12px;font-family:Roboto, sans-serif;text-anchor:middle;visibility:hidden;fill:#000000"
           x="192.56734"
           y="0"
           fill="#ffffff"
           stroke="none"
           stroke-width="1px"
           id="text1494" />
        <text
           style="font-weight:200;font-size:12px;font-family:Roboto, sans-serif;text-anchor:middle;visibility:inherit;fill:#000000"
           x="216.63824"
           y="0"
           fill="#ffffff"
           stroke="none"
           stroke-width="1px"
           id="text1496"
           dy="0.94999999em"
           dx="0em">800k</text>
        <text
           style="font-weight:200;font-size:12px;font-family:Roboto, sans-serif;text-anchor:middle;visibility:hidden;fill:#000000"
           x="240.70917"
           y="0"
           fill="#ffffff"
           stroke="none"
           stroke-width="1px"
           id="text1498" />
        <text
           style="font-weight:200;font-size:12px;font-family:Roboto, sans-serif;text-anchor:middle;visibility:inherit;fill:#000000"
           x="264.78009"
           y="0"
           dx="0em"
           dy="0.94999999em"
           fill="#ffffff"
           stroke="none"
           stroke-width="1px"
           id="text1500">1M</text>
        <text
           style="font-weight:200;font-size:12px;font-family:Roboto, sans-serif;text-anchor:middle;visibility:hidden;fill:#000000"
           x="288.85101"
           y="0"
           fill="#ffffff"
           stroke="none"
           stroke-width="1px"
           id="text1502" />
      </g>
      <line
         x1="0"
         y1="0"
         x2="288.85101"
         y2="0"
         fill="#000000"
         stroke="#cccccc"
         stroke-width="1px"
         id="line1506"
         style="fill:#000000" />
    </g>
  </g>
  <text
     style="font-weight:200;font-size:18.6667px;font-family:Roboto, sans-serif;text-anchor:middle;visibility:inherit;fill:#1a1a1a"
     x="354.46069"
     y="49.667816"
     fill="#ffffff"
     stroke="none"
     stroke-width="1px"
     id="text1190"><tspan
       style="font-weight:normal"
       id="tspan1216">a2c-build-1</tspan></text>
  <text
     style="font-weight:200;font-size:18.6667px;font-family:Roboto, sans-serif;text-anchor:middle;visibility:inherit;fill:#1a1a1a"
     x="355.51117"
     y="20.010664"
     fill="#ffffff"
     stroke="none"
     stroke-width="1px"
     id="text1206"><tspan
       style="font-weight:normal"
       id="tspan1218">ppo-build-1</tspan></text>
  <text
     style="font-weight:200;font-size:18.6667px;font-family:Roboto, sans-serif;text-anchor:middle;visibility:inherit;fill:#1a1a1a"
     x="353.76639"
     y="106.43354"
     fill="#ffffff"
     stroke="none"
     stroke-width="1px"
     id="text1208"><tspan
       style="font-weight:normal"
       id="tspan1220">a2c-build-2</tspan></text>
  <text
     style="font-weight:200;font-size:18.6667px;font-family:Roboto, sans-serif;text-anchor:middle;visibility:inherit;fill:#1a1a1a"
     x="353.08945"
     y="78.442833"
     fill="#ffffff"
     stroke="none"
     stroke-width="1px"
     id="text1210"><tspan
       style="font-weight:normal"
       id="tspan1222">ppo-build-2</tspan></text>
  <text
     style="font-weight:200;font-size:18.6667px;font-family:Roboto, sans-serif;text-anchor:middle;visibility:inherit;fill:#1a1a1a"
     x="352.91345"
     y="156.70833"
     fill="#ffffff"
     stroke="none"
     stroke-width="1px"
     id="text1212"><tspan
       style="font-weight:normal"
       id="tspan1224">a2c-build-5</tspan></text>
  <text
     style="font-weight:200;font-size:18.6667px;font-family:Roboto, sans-serif;text-anchor:middle;visibility:inherit;fill:#1a1a1a"
     x="353.89209"
     y="122.65752"
     fill="#ffffff"
     stroke="none"
     stroke-width="1px"
     id="text1214"><tspan
       style="font-weight:normal"
       id="tspan1226">ppo-build-5</tspan></text>
</svg>
